<?xml version="1.0" encoding="UTF-8" standalone="no"?>
<!DOCTYPE svg PUBLIC "-//W3C//DTD SVG 1.1//EN" "http://www.w3.org/Graphics/SVG/1.1/DTD/svg11.dtd">
<svg width="100%" height="100%" viewBox="0 0 750 828" version="1.1" xmlns="http://www.w3.org/2000/svg" xmlns:xlink="http://www.w3.org/1999/xlink" xml:space="preserve" xmlns:serif="http://www.serif.com/" style="fill-rule:evenodd;clip-rule:evenodd;stroke-linejoin:round;stroke-miterlimit:2;">
    <g transform="matrix(1,0,0,1,-3159.54,-4152.93)">
        <g transform="matrix(1.69272,0,0,1.03551,1290.5,2632)">
            <g transform="matrix(0.65222,0,0,1,526.52,9.09495e-13)">
                <g transform="matrix(1.02976,0,0,1.0979,-2364.34,-2959.2)">
                    <g transform="matrix(1,0,0,1,4.78126,-0.407644)">
                        <path d="M3210.2,4432.17L3210.2,4478.19L3279.64,4478.19L3279.64,4629.17L3276.52,4634.63L3247.65,4678.72L3271.84,4718.12L3283.54,4718.12L3283.54,4761.43L3248.82,4761.43L3242.97,4751.67L3222.68,4716.95L3200.83,4752.45L3194.59,4761.43L3154.02,4761.43L3154.02,4718.12L3172.35,4718.12L3198.49,4677.94L3171.57,4633.85L3169.23,4628.78L3169.23,4518.76L3151.28,4518.76L3151.28,4478.19L3169.23,4478.19L3169.23,4432.17L3165.14,4432.17L3165.14,4390.42L3193.62,4390.42L3207.27,4368.96L3207.27,4315.9L3192.45,4330.34L3186.2,4335.8L3157.33,4335.8L3157.33,4297.18L3171.38,4297.18L3207.27,4262.07L3207.27,4210.57L3194.01,4226.95L3188.54,4234.36L3157.33,4234.36L3157.33,4196.13L3170.6,4196.13L3193.22,4167.26L3156.55,4138.78L3181.52,4106.79L3218.59,4135.27L3229.51,4121.22L3235.36,4113.81L3268.13,4113.81L3268.13,4152.05L3253.7,4152.05L3248.62,4158.29L3248.62,4380.28L3245.5,4384.96L3223.27,4422.02L3217.41,4432.17L3210.2,4432.17ZM3238.68,4518.76L3210.2,4518.76L3210.2,4617.47L3223.46,4639.7L3238.68,4616.69L3238.68,4518.76ZM3524.58,4358.92L3453.06,4359.6L3426.92,4373.65L3438.23,4390.42L3475.3,4390.42L3475.3,4431.39L3415.61,4431.39L3409.36,4422.02L3368.4,4358.43L3365.28,4353.36L3365.28,4299.52L3316.51,4299.52L3316.51,4361.16L3334.46,4390.42L3377.76,4390.42L3377.76,4431.39L3312.22,4431.39L3305.59,4421.63L3278.28,4377.55L3275.16,4372.48L3275.16,4130.2L3350.06,4130.2L3350.06,4102.5L3391.81,4102.5L3391.81,4130.2L3466.71,4130.2L3466.71,4299.52L3406.24,4299.52L3406.24,4337.75L3438.62,4320.59L3442.91,4318.24L3491.81,4318.47L3511.7,4230.33L3511.7,4177.3L3553.06,4177.3L3553.06,4234.15L3552.28,4236.44L3524.58,4358.92ZM3425.36,4171.94L3316.51,4171.94L3316.51,4194.57L3425.36,4194.57L3425.36,4171.94ZM3316.51,4258.16L3425.36,4258.16L3425.36,4235.53L3316.51,4235.53L3316.51,4258.16ZM3559.3,4431.79L3559.3,4391.35L3600.27,4391.35L3620.55,4361.21L3620.55,4110.14L3661.91,4110.14L3661.91,4373.03L3622.11,4431.79L3559.3,4431.79ZM3723.55,4177.3L3764.91,4177.3L3764.91,4230.33L3784.41,4318.47L3803.14,4318.47L3803.14,4358.92L3751.64,4358.92L3723.94,4236.44L3723.55,4234.15L3723.55,4177.3ZM3290.18,4566.36L3364.69,4566.36L3364.69,4514.86L3295.25,4514.86L3295.25,4473.5L3364.69,4473.5L3364.69,4432.15L3406.05,4432.15L3406.05,4473.5L3475.1,4473.5L3475.1,4514.86L3406.05,4514.86L3406.05,4566.36L3481.98,4566.36L3481.98,4607.32L3406.05,4607.32L3406.05,4761.82L3364.69,4761.82L3364.69,4607.32L3290.18,4607.32L3290.18,4566.36ZM3343.62,4626.05L3343.62,4656.87L3343.24,4658.82L3333.09,4741.14L3330.75,4761.43L3289.78,4761.43L3289.78,4718.12L3298.37,4718.12L3306.17,4654.53L3306.17,4626.05L3343.62,4626.05ZM3463.79,4626.05L3463.79,4654.53L3472.37,4718.12L3481.59,4718.12L3481.59,4761.43L3439.21,4761.43L3438.04,4741.14L3426.72,4658.82L3426.72,4626.05L3463.79,4626.05Z" style="fill:white;"/>
                    </g>
                    <g transform="matrix(1.8165,0,0,1.809,-2238.74,-3256.75)">
                        <path d="M3332.73,4249.95L3332.73,4432.17L3151.27,4432.17L3151.27,4249.95L3332.73,4249.95ZM3284.99,4388.77L3284.99,4382.82L3267.2,4382.82L3267.2,4353.04L3261.27,4353.04L3261.27,4388.77L3284.99,4388.77ZM3255.34,4382.82L3255.34,4359L3249.41,4353.04L3237.55,4353.04L3231.62,4359L3231.62,4382.82L3237.55,4388.77L3249.17,4388.77L3255.34,4382.82ZM3249.41,4380.38L3246.98,4382.82L3239.98,4382.82L3237.55,4380.38L3237.55,4361.44L3239.98,4359L3246.98,4359L3249.41,4361.44L3249.41,4380.38ZM3184.17,4382.82L3184.17,4373.89L3181.2,4370.91L3184.17,4367.93L3184.17,4359L3178.24,4353.04L3160.45,4353.04L3160.45,4388.77L3178.24,4388.77L3184.17,4382.82ZM3178.24,4380.38L3175.81,4382.82L3166.38,4382.82L3166.38,4373.89L3175.81,4373.89L3178.24,4376.33L3178.24,4380.38ZM3178.24,4365.49L3175.81,4367.93L3166.38,4367.93L3166.38,4359L3175.81,4359L3178.24,4361.44L3178.24,4365.49ZM3314.64,4359L3314.64,4353.04L3290.92,4353.04L3290.92,4388.77L3296.85,4388.77L3296.85,4373.89L3305.75,4373.89L3305.75,4367.93L3296.85,4367.93L3296.85,4359L3314.64,4359ZM3225.45,4353.04L3219.46,4353.04L3216.2,4373.71L3211.04,4353.04L3204.75,4353.04L3199.59,4373.71L3196.33,4353.04L3190.34,4353.04L3195.97,4388.77L3201.96,4388.77L3207.89,4364.89L3213.82,4388.77L3219.81,4388.77L3225.45,4353.04ZM3192.39,4394.28L3186.94,4394.28L3183.97,4413.08L3179.28,4394.28L3173.56,4394.28L3168.87,4413.08L3165.9,4394.28L3160.45,4394.28L3165.57,4426.79L3171.02,4426.79L3176.42,4405.06L3181.82,4426.79L3187.27,4426.79L3192.39,4394.28ZM3273.55,4426.79L3263.19,4408.04L3273.55,4394.28L3266.81,4394.28L3257.36,4406.85L3257.36,4394.28L3251.97,4394.28L3251.97,4426.79L3257.36,4426.79L3257.36,4415.85L3259.63,4412.81L3267.4,4426.79L3273.55,4426.79ZM3246.57,4407.82L3246.57,4399.7L3241.17,4394.28L3224.99,4394.28L3224.99,4426.79L3230.38,4426.79L3230.38,4413.24L3234.97,4413.24L3240.69,4426.79L3246.57,4426.79L3240.96,4413.24L3246.57,4407.82ZM3241.17,4405.6L3238.96,4407.82L3230.38,4407.82L3230.38,4399.7L3238.96,4399.7L3241.17,4401.92L3241.17,4405.6ZM3326.51,4388.77L3326.51,4382.82L3320.58,4382.82L3320.58,4388.77L3326.51,4388.77ZM3219.59,4421.37L3219.59,4399.7L3214.19,4394.28L3203.4,4394.28L3198.01,4399.7L3198.01,4421.37L3203.4,4426.79L3213.98,4426.79L3219.59,4421.37ZM3214.19,4419.15L3211.98,4421.37L3205.61,4421.37L3203.4,4419.15L3203.4,4401.92L3205.61,4399.7L3211.98,4399.7L3214.19,4401.92L3214.19,4419.15Z" style="fill:white;"/>
                    </g>
                </g>
                <g transform="matrix(0.580863,0,0,0.619296,-455.337,-1088.03)">
                    <path d="M2341.72,4156.52L2370.03,4156.52L2370.99,4150.37L2329.07,4150.37L2329.07,4137.48L2372.55,4137.48L2373.16,4128.57L2389.3,4130.14L2388.09,4137.48L2433.51,4137.48L2433.51,4150.37L2385.56,4150.37L2384.24,4156.52L2421.22,4156.52L2421.22,4225.54L2436.64,4225.54L2436.64,4238.55L2326.06,4238.55L2326.06,4225.54L2341.72,4225.54L2341.72,4156.52ZM2355.69,4185.31L2355.69,4191.33L2406.52,4191.33L2406.52,4185.31L2355.69,4185.31ZM2355.69,4174.7L2406.52,4174.7L2406.52,4168.44L2355.69,4168.44L2355.69,4174.7ZM2355.69,4201.93L2355.69,4208.31L2406.52,4208.31L2406.52,4201.93L2355.69,4201.93ZM2355.69,4225.54L2406.52,4225.54L2406.52,4218.91L2355.69,4218.91L2355.69,4225.54Z" style="fill:white;fill-rule:nonzero;"/>
                    <path d="M2512.4,4144.71L2502.77,4145.31C2503.65,4147.24 2504.59,4149.27 2505.6,4151.4C2506.6,4153.52 2507.35,4155.35 2507.83,4156.88L2501.44,4159.05L2512.4,4159.05L2512.4,4144.71ZM2458.56,4129.05L2471.81,4129.05L2471.81,4151.82L2482.77,4151.82L2482.77,4165.07L2471.81,4165.07L2471.81,4182.65L2480.72,4179.76L2481.81,4185.55C2485.74,4183.78 2489.5,4181.61 2493.07,4179.04C2496.64,4176.47 2499.72,4173.7 2502.29,4170.73L2483.49,4170.73L2483.49,4159.05L2495.42,4159.05C2494.86,4157.36 2494.2,4155.51 2493.43,4153.51C2492.67,4151.5 2491.89,4149.65 2491.08,4147.96L2499.39,4145.43L2486.99,4145.92C2486.91,4144.39 2486.55,4142.6 2485.9,4140.56C2485.26,4138.51 2484.62,4136.84 2483.98,4135.56C2490.96,4135.24 2498.17,4134.79 2505.6,4134.23C2513.03,4133.67 2520.13,4132.99 2526.92,4132.18C2533.7,4131.38 2539.59,4130.5 2544.57,4129.53L2552.03,4139.89C2549.78,4140.38 2547.4,4140.8 2544.87,4141.16C2542.34,4141.52 2539.71,4141.9 2536.98,4142.3L2525.41,4143.63L2525.41,4159.05L2529.63,4159.05C2530.99,4156.56 2532.36,4153.77 2533.72,4150.67C2535.09,4147.58 2536.17,4144.79 2536.98,4142.3L2549.38,4145.56C2548.18,4147.8 2546.97,4150.09 2545.77,4152.42C2544.57,4154.75 2543.4,4156.96 2542.28,4159.05L2556.13,4159.05L2556.13,4170.73L2536.49,4170.73C2539.55,4173.94 2543.14,4176.95 2547.28,4179.76C2551.41,4182.57 2555.57,4184.78 2559.74,4186.39C2558.38,4187.59 2556.81,4189.22 2555.05,4191.27C2553.28,4193.32 2551.87,4195.14 2550.83,4196.75L2550.23,4196.39L2550.23,4241.32L2536.86,4241.32L2536.86,4237.34L2501.44,4237.34L2501.44,4241.8L2488.8,4241.8L2488.8,4196.39L2486.26,4197.59C2485.86,4196.87 2485.34,4196.09 2484.7,4195.24C2484.06,4194.4 2483.37,4193.54 2482.65,4192.65L2471.81,4196.51L2471.81,4226.86C2471.81,4230.15 2471.47,4232.78 2470.79,4234.75C2470.1,4236.72 2468.84,4238.27 2466.99,4239.39C2465.22,4240.51 2462.98,4241.26 2460.25,4241.62C2457.52,4241.98 2454.18,4242.16 2450.25,4242.16C2450.09,4240.39 2449.65,4238.2 2448.92,4235.6C2448.2,4232.98 2447.4,4230.72 2446.51,4228.79C2448.76,4228.87 2450.83,4228.93 2452.72,4228.97C2454.61,4229.01 2455.91,4228.99 2456.63,4228.91C2457.92,4228.91 2458.56,4228.23 2458.56,4226.86L2458.56,4201.09L2446.39,4205.3L2443.87,4191.33C2445.95,4190.77 2448.24,4190.1 2450.73,4189.34C2453.22,4188.58 2455.83,4187.79 2458.56,4186.99L2458.56,4165.07L2445.91,4165.07L2445.91,4151.82L2458.56,4151.82L2458.56,4129.05ZM2512.4,4176.87C2509.99,4180.01 2507.28,4182.98 2504.27,4185.79C2501.26,4188.6 2498.07,4191.05 2494.7,4193.13L2544.69,4193.13C2541.15,4190.81 2537.7,4188.1 2534.33,4185C2530.95,4181.91 2527.98,4178.68 2525.41,4175.31L2525.41,4191.33L2512.4,4191.33L2512.4,4176.87ZM2512.64,4203.61L2501.44,4203.61L2501.44,4210.36L2512.64,4210.36L2512.64,4203.61ZM2524.57,4203.61L2524.57,4210.36L2536.86,4210.36L2536.86,4203.61L2524.57,4203.61ZM2512.64,4220.36L2501.44,4220.36L2501.44,4227.22L2512.64,4227.22L2512.64,4220.36ZM2524.57,4220.36L2524.57,4227.22L2536.86,4227.22L2536.86,4220.36L2524.57,4220.36Z" style="fill:white;fill-rule:nonzero;"/>
                    <path d="M2612.98,4130.38L2625.15,4135.19C2623.14,4137.93 2621.22,4140.6 2619.37,4143.21C2617.52,4145.82 2615.8,4148.04 2614.19,4149.89L2605.03,4145.8C2606.4,4143.71 2607.83,4141.18 2609.31,4138.21C2610.8,4135.24 2612.02,4132.63 2612.98,4130.38ZM2606.96,4202.65L2592.39,4202.65L2588.77,4209.03L2598.65,4213.85C2600.26,4212.25 2601.78,4210.5 2603.23,4208.61C2604.67,4206.73 2605.92,4204.74 2606.96,4202.65ZM2571.55,4213.61C2572.67,4212.01 2573.82,4210.28 2574.98,4208.43C2576.14,4206.59 2577.29,4204.66 2578.41,4202.65L2569.14,4202.65L2569.14,4190.97L2584.44,4190.97C2585,4189.76 2585.52,4188.58 2586,4187.41C2586.48,4186.25 2586.93,4185.1 2587.33,4183.98L2600.1,4186.27L2598.17,4190.97L2613.35,4190.97L2615.51,4190.48L2623.34,4193.38C2621.82,4198.76 2619.89,4203.61 2617.56,4207.95C2615.23,4212.29 2612.54,4216.22 2609.49,4219.76C2611.1,4220.72 2612.62,4221.64 2614.07,4222.53C2615.51,4223.41 2616.84,4224.29 2618.04,4225.18L2609.49,4234.57C2608.21,4233.61 2606.8,4232.58 2605.28,4231.5C2603.75,4230.41 2602.1,4229.35 2600.34,4228.31C2596.24,4231.36 2591.78,4233.99 2586.97,4236.2C2582.15,4238.41 2577.01,4240.27 2571.55,4241.8C2570.91,4240.19 2569.96,4238.31 2568.72,4236.14C2567.47,4233.97 2566.25,4232.24 2565.04,4230.96C2573.96,4229.03 2581.87,4225.94 2588.77,4221.68C2585.88,4220.16 2582.99,4218.69 2580.1,4217.29C2577.21,4215.88 2574.36,4214.66 2571.55,4213.61ZM2569.98,4135.32L2580.34,4130.98C2581.95,4133.23 2583.43,4135.76 2584.8,4138.57C2586.16,4141.38 2587.09,4143.87 2587.57,4146.04L2577.57,4150.37L2589.98,4150.37L2589.98,4128.93L2603.35,4128.93L2603.35,4150.37L2626.23,4150.37L2626.23,4161.7L2608.53,4161.7C2611.34,4163.22 2614.17,4164.85 2617.02,4166.57C2619.87,4168.3 2621.82,4169.57 2622.86,4170.37L2615.27,4180.37C2613.99,4179.08 2612.26,4177.52 2610.09,4175.67C2607.93,4173.82 2605.68,4172.02 2603.35,4170.25L2603.35,4183.26L2589.98,4183.26L2589.98,4172.54C2584.2,4178.32 2578.21,4182.94 2572.03,4186.39C2571.23,4184.78 2570.12,4182.94 2568.72,4180.85C2567.31,4178.76 2565.93,4177.07 2564.56,4175.79C2568.09,4174.34 2571.69,4172.38 2575.34,4169.89C2579,4167.4 2582.19,4164.67 2584.92,4161.7L2567.09,4161.7L2567.09,4150.37L2576.61,4150.37C2576.2,4148.28 2575.36,4145.84 2574.08,4143.02C2572.79,4140.21 2571.43,4137.65 2569.98,4135.32ZM2635.63,4129.29L2648.88,4131.22C2648.4,4134.67 2647.84,4138.05 2647.19,4141.34C2646.55,4144.63 2645.87,4147.92 2645.15,4151.22L2677.43,4151.22L2677.43,4164.59L2669.84,4164.59C2668.72,4173.1 2667.21,4180.93 2665.32,4188.07C2663.43,4195.22 2661.05,4201.77 2658.16,4207.71C2660.97,4212.37 2664.2,4216.56 2667.85,4220.3C2671.51,4224.03 2675.62,4227.18 2680.2,4229.75C2678.67,4231.04 2676.99,4232.78 2675.14,4234.99C2673.29,4237.2 2671.85,4239.23 2670.8,4241.08C2666.63,4238.51 2662.85,4235.49 2659.48,4232.04C2656.11,4228.59 2653.06,4224.77 2650.33,4220.6C2643.66,4229.59 2634.71,4236.94 2623.46,4242.64C2623.06,4241.68 2622.42,4240.45 2621.54,4238.97C2620.65,4237.48 2619.71,4236 2618.71,4234.51C2617.7,4233.02 2616.8,4231.84 2616,4230.96C2627.88,4225.5 2636.95,4217.75 2643.22,4207.71C2641.45,4203.94 2639.87,4199.92 2638.46,4195.66C2637.05,4191.41 2635.79,4186.99 2634.67,4182.41C2633.7,4184.42 2632.68,4186.33 2631.6,4188.14C2630.51,4189.94 2629.41,4191.65 2628.28,4193.26C2627.64,4192.45 2626.68,4191.47 2625.39,4190.3C2624.11,4189.14 2622.78,4187.98 2621.42,4186.81C2620.05,4185.65 2618.89,4184.74 2617.92,4184.1C2621.14,4179.93 2623.91,4174.95 2626.23,4169.16C2628.56,4163.38 2630.49,4157.1 2632.02,4150.31C2633.54,4143.53 2634.75,4136.52 2635.63,4129.29ZM2656.35,4164.59L2643.22,4164.59C2644.1,4169.48 2645.15,4174.2 2646.35,4178.74C2647.55,4183.28 2648.96,4187.67 2650.57,4191.93C2651.93,4187.91 2653.1,4183.64 2654.06,4179.1C2655.02,4174.56 2655.79,4169.73 2656.35,4164.59Z" style="fill:white;fill-rule:nonzero;"/>
                    <path d="M2740.79,4203.25L2760.18,4203.25L2760.18,4191.69L2741.51,4191.69C2741.03,4197.55 2740.24,4203.51 2739.16,4209.58C2738.08,4215.64 2736.57,4221.48 2734.64,4227.1C2732.72,4232.72 2730.19,4237.82 2727.06,4242.4C2726.25,4241.52 2725.13,4240.53 2723.68,4239.45C2722.24,4238.37 2720.75,4237.3 2719.23,4236.26C2717.7,4235.21 2716.41,4234.45 2715.37,4233.97C2718.42,4229.47 2720.81,4224.55 2722.54,4219.21C2724.26,4213.87 2725.55,4208.37 2726.39,4202.71C2727.24,4197.05 2727.78,4191.49 2728.02,4186.03C2728.26,4180.57 2728.38,4175.47 2728.38,4170.73L2728.38,4133.75L2794.75,4133.75L2794.75,4168.8L2773.67,4168.8L2773.67,4179.52L2798.12,4179.52L2798.12,4191.69L2773.67,4191.69L2773.67,4203.25L2795.35,4203.25L2795.35,4241.92L2782.35,4241.92L2782.35,4238.55L2753.19,4238.55L2753.19,4242.04L2740.79,4242.04L2740.79,4203.25ZM2742.35,4146.16L2742.35,4156.52L2781.14,4156.52L2781.14,4146.16L2742.35,4146.16ZM2742.35,4168.8L2742.35,4170.73L2742.23,4179.52L2760.18,4179.52L2760.18,4168.8L2742.35,4168.8ZM2753.19,4227.1L2782.35,4227.1L2782.35,4215.06L2753.19,4215.06L2753.19,4227.1ZM2699.47,4129.05L2712.72,4129.05L2712.72,4151.82L2724.89,4151.82L2724.89,4165.07L2712.72,4165.07L2712.72,4183.14L2723.32,4180.25L2725.13,4193.26L2712.72,4196.99L2712.72,4225.3C2712.72,4228.59 2712.38,4231.2 2711.7,4233.13C2711.01,4235.05 2709.75,4236.58 2707.9,4237.7C2706.14,4238.83 2703.89,4239.57 2701.16,4239.93C2698.43,4240.29 2695.1,4240.47 2691.16,4240.47C2691,4238.71 2690.56,4236.52 2689.84,4233.91C2689.11,4231.3 2688.31,4229.07 2687.43,4227.22C2689.67,4227.3 2691.74,4227.34 2693.63,4227.34C2695.52,4227.34 2696.82,4227.3 2697.54,4227.22C2698.83,4227.22 2699.47,4226.54 2699.47,4225.18L2699.47,4200.72L2688.15,4203.98L2684.9,4190.12L2699.47,4186.63L2699.47,4165.07L2686.82,4165.07L2686.82,4151.82L2699.47,4151.82L2699.47,4129.05Z" style="fill:white;fill-rule:nonzero;"/>
                </g>
            </g>
        </g>
    </g>
</svg>
