<?xml version="1.0" encoding="UTF-8" standalone="no"?>
<!DOCTYPE svg PUBLIC "-//W3C//DTD SVG 1.1//EN" "http://www.w3.org/Graphics/SVG/1.1/DTD/svg11.dtd">
<svg width="100%" height="100%" viewBox="0 0 1024 1024" version="1.1" xmlns="http://www.w3.org/2000/svg" xmlns:xlink="http://www.w3.org/1999/xlink" xml:space="preserve" xmlns:serif="http://www.serif.com/" style="fill-rule:evenodd;clip-rule:evenodd;stroke-linejoin:round;stroke-miterlimit:2;">
    <g transform="matrix(1,0,0,1,-37,-2715)">
        <g id="画板1" transform="matrix(1,0,0,1.28,37,2715)">
            <rect x="0" y="0" width="1024" height="800" style="fill:none;"/>
            <clipPath id="_clip1">
                <rect x="0" y="0" width="1024" height="800"/>
            </clipPath>
            <g clip-path="url(#_clip1)">
                <g>
                    <clipPath id="_clip2">
                        <path d="M1024,96.631L1024,703.369C1024,756.701 968.578,800 900.313,800L123.687,800C55.422,800 0,756.701 0,703.369L0,96.631C0,43.299 55.422,0 123.687,0L900.313,0C968.578,0 1024,43.299 1024,96.631Z"/>
                    </clipPath>
                    <g clip-path="url(#_clip2)">
                        <g transform="matrix(1.2213,0,0,1.2213,-111.62,-177.04)">
                            <g transform="matrix(1,0,0,0.78125,0,175)">
                                <g id="_-f3f5f8ff" serif:id="#f3f5f8ff">
                                    <path d="M553.71,62.66C555.59,57.22 558.63,50.77 564.97,49.73C570.66,49.15 574.98,53.76 579.23,56.82C592.43,68 605.14,80.78 611.64,97.14C614.42,102.45 615.54,108.44 618.08,113.8C621.57,114.93 625.63,113.7 629.04,115.51C636.35,118.62 639.37,126.45 643.7,132.51C650.5,142.39 655.86,153.3 663.84,162.34C667.17,166.36 671.16,169.81 674.13,174.14C685.29,190.47 693.48,209.19 695.7,228.97C696.31,232.52 695.92,236.6 698.49,239.48C701.33,242.94 704.15,246.42 706.92,249.95C717.12,261.86 726.4,274.54 736.52,286.51C744.14,294.17 751.44,302.4 760.76,308.07C770.41,313.72 781.39,316.49 791.31,321.62C806.23,328.88 820.57,337.83 831.98,350.01C839.63,357.76 847.98,364.9 857.17,370.77C860.55,373.06 863.92,376.6 863.56,381C864.03,384.94 860.98,387.92 858.11,390.07C848.62,397.02 838.16,402.66 827.28,407.09C818.58,410.53 809.25,411.71 799.97,412.09C776.15,411.39 753.15,403.92 731.49,394.41C724.42,391.32 719.23,385.42 713.15,380.88C713.96,384.81 715.29,388.85 718.51,391.49C726.9,399.12 734.86,407.3 744.24,413.74C751.71,418.96 758.34,425.25 765.44,430.94C772.31,436.6 778.93,442.56 785.37,448.7C791.4,455.31 798.14,461.36 802.92,469.01C814.06,483.63 820.96,501.62 821.45,520.06C821.8,528.44 819.97,536.82 816.39,544.39C815.82,545.95 814.18,548.32 816.38,549.37C827.16,556.37 837.89,563.46 848.3,571.01C848.73,561.57 849.76,552.13 852.56,543.07C856.7,528.97 862.96,515.6 869.4,502.43C872.11,496.6 877.43,492.82 882.48,489.18C887.46,485.64 891.5,480.83 896.99,478.02C900.35,476.26 904.27,474.88 908.06,476.1C912.84,477.07 915.83,481.33 917.8,485.47C925.54,487.57 932.9,491.01 939.64,495.32C942.73,497.1 943.95,500.54 945.31,503.63C946.3,506.14 948.63,507.68 950.43,509.58C953.59,512.75 954.94,517.15 956.93,521.06C958.01,523.43 960.38,524.76 962.36,526.32C967.38,529.84 971.32,535.04 973.08,540.94C974.93,548.54 972.01,556.14 969.1,563.06C964.4,573.66 959.11,584.04 952.6,593.66C945.17,604.79 936.94,615.35 928.77,625.93C922.69,632.88 920.46,642.06 917.13,650.45C915.91,654.36 913.7,658 913.29,662.13C913.32,664.85 915.74,666.67 917.11,668.82C921.78,674.79 924.35,682.04 928.71,688.22C930.21,690.49 931.87,692.8 932.4,695.55C933.14,700.04 932.36,704.58 932.47,709.1C932.32,710.5 933.56,711.46 934.3,712.5C944.36,723.74 953.88,735.5 964.85,745.89C969.92,751.12 974.92,756.47 980.65,761.01C988.89,768.19 997.69,774.71 1005.6,782.27C1011.36,787.59 1018.19,792.52 1021.24,800L955.62,800C953.47,798.61 951.3,797.26 948.98,796.19C948.39,797.44 948.87,799.62 947.11,800L939.56,800C942.63,791.14 940.87,781.32 936.81,773.08C935.6,770.25 933.53,767.33 934.4,764.11C935.86,758.75 939.22,753.75 938.71,747.98C938.48,741.56 934.33,736.24 929.83,732.04C927.14,730.09 928.63,726.71 928.81,724C930.23,718.93 924.93,715.65 924.04,711.07C923.78,706.99 925.24,703.01 924.84,698.93C924.49,696.18 922.74,693.92 921.32,691.65C917.86,686.58 915.74,680.73 912.27,675.67C909.62,671.8 906.72,668.12 903.82,664.45C907.03,654.09 911.21,644.08 914.7,633.82C917.12,626.02 923.3,620.4 927.86,613.88C931.9,608.82 935.34,603.33 939.12,598.09C947.74,587.16 954.3,574.8 960.34,562.31C963.28,556.4 965.89,549.92 965.31,543.19C964.01,537.11 958.27,533.8 953.77,530.24C947.82,525.98 948.55,516.75 941.8,513.25C936.8,511.21 938.69,504.36 934.39,501.65C927.32,496.87 919.13,493.4 910.44,493.76C909.74,490.42 910.13,485.28 905.93,484.25C900.92,483.59 897.13,487.76 893.46,490.5C887.75,495.81 880.68,499.86 876.48,506.62C873.26,511.44 871.85,517.14 869.35,522.33C867.35,526.47 865.42,530.65 864.04,535.05C861.28,543.88 857.39,552.59 857.24,562.01C857.15,570.13 856.64,578.4 858.66,586.36C860.65,595.1 860.51,604.11 860.46,613.01C860.53,618.17 858.14,622.84 856.78,627.7C855.88,630.81 854.86,633.89 853.59,636.88C850.48,637.27 847.21,637.67 844.6,639.56C837.67,644.6 833.4,652.18 828.39,658.91C819.92,647.45 809.98,637.16 800.97,626.13C791.02,614.42 780.51,603.2 770.1,591.9C756.93,578.06 742.25,565.77 728.78,552.24C716.96,539.62 705.59,526.46 695.89,512.12C682.96,491.46 672.96,469.06 665.06,446.04C661.62,436.34 659.55,426.25 656.57,416.42C653.92,407.84 650.66,399.46 648.12,390.86C647.25,388.37 650.15,387.06 651.56,385.54C666.33,373.92 676.17,357.28 683.2,340.11C684.87,337.18 682.17,334.62 680.59,332.4C678.01,329.28 676.02,325.69 673.25,322.74C668.96,322.61 664.62,323.7 660.37,322.58C646.76,319.73 634.44,312.08 624.48,302.54C620.78,299.02 617.69,294.91 613.85,291.53C615.34,305.02 618.03,318.91 614.33,332.29C613.3,336.55 610.42,340.5 611.22,345.06C612.92,359.64 613.8,374.38 612.68,389.04C611.25,409.1 610.43,429.19 608.98,449.25C608,465.17 608.14,481.15 609.36,497.05C609.95,506.38 610.29,515.86 613.1,524.85C620.35,547.31 628.23,569.72 639.44,590.57C647.74,605.23 656.76,619.55 667.54,632.52C672.97,638.1 677.56,644.5 683.64,649.42C687.42,652.56 691.22,655.68 695.12,658.66C700.15,662.64 705.08,666.87 708.98,672C710.94,674.77 712.68,677.69 714.63,680.47C717.16,684.18 717.66,688.77 718.39,693.09C719.23,698.89 717.14,704.48 715.81,710.02C715.33,715.7 717.05,721.32 716.87,727.02C716.82,739.18 714.5,752.07 706.83,761.87C704.55,764.9 701.92,767.65 699.04,770.11C702.6,763.17 705.96,756.05 707.16,748.26C709.68,738.45 708.72,727.54 702.91,719.04C695.15,708.53 683.54,701.78 675.23,691.77C669.47,685.09 663.79,678.21 659.39,670.54C657.84,667.09 656.84,662.72 653.04,661.04C644.51,656.73 635.58,653 628.04,646.99C609.59,633.12 597.85,612.62 587.9,592.23C580.86,575.15 575.26,557.38 572.72,539.04C571.04,530.45 570.07,521.74 569.26,513.03C567.35,499.96 565.3,486.89 563.87,473.76C563.82,473.29 563.74,472.36 563.7,471.9C561.82,457.75 560.39,443.44 561.75,429.18C562.07,420.34 563.35,411.56 563.54,402.71C563.82,396.13 564.34,389.52 566.07,383.14C566.99,380.15 566.05,377.09 565.39,374.17C560.15,374.62 556.34,380.47 550.84,378.72C552.94,374.15 556.5,370.15 556.98,364.97C553.29,368.23 550.18,372.12 546.13,374.96C546.68,367.92 550.65,361.85 551.87,354.98C554.33,344.84 555.06,334.41 555.69,324.03C555.86,315.35 557.32,306.7 556.61,298.01C556.19,293.24 555.79,288.46 554.85,283.76C550.54,264.91 546.7,245.62 537.76,228.3C532.21,216.76 525.78,205.46 517.09,195.98C517.89,200 520.44,203.3 522.13,206.96C525.59,214.28 529.15,221.6 531.8,229.27C535.33,238.96 537.66,249.03 539.86,259.08C540.98,265.68 542.7,272.37 541.65,279.1C537.85,276.29 534.01,273.55 530.19,270.78C525.95,267.7 522.66,262.93 517.18,261.94C517.02,267 519.69,271.41 520.94,276.16C522.89,285.2 524.55,294.66 522.04,303.78C518.83,296.59 517.74,288.65 514.31,281.55C512.02,277.03 511.23,271.84 508.19,267.7C501.88,258.33 497.16,247.5 488.32,240.14C488.22,244.15 488.16,248.2 488.96,252.15C490.76,260.98 491.6,270 491.4,279.01C491.51,289.43 491.07,299.99 488.31,310.1C487.27,313.94 487.73,318.42 484.74,321.48C480.29,316.68 484.41,309.21 480.93,303.78C479.81,309.48 478.21,315.06 476.82,320.69C474.87,328.12 470.9,334.77 467.8,341.73C466.31,346.14 471.4,348.63 473.84,351.38C469.5,353.28 464.88,350.62 460.49,351.61C455.21,355.56 450.84,360.61 445.6,364.62C444.84,362.29 444.62,359.84 444.02,357.49C441.81,355.75 440.19,353.56 440.27,350.62C443.31,347.46 444.62,343.19 445.96,339.12C454.14,315.72 454.05,290.31 451.01,265.99C449.82,255.18 446.62,244.76 443.62,234.36C442.68,231.1 441.5,227.92 440.1,224.84C440.44,228.85 441.39,232.76 442.35,236.66C448.82,268.67 450.31,302.08 443.17,334.12C442.16,338.67 440.72,343.13 439.97,347.73C434.81,346.87 430.95,343.14 427.05,339.98C420.65,334.98 415.73,328.46 410.76,322.11C408.57,319.34 407.04,316.04 404.32,313.71C404.21,319.77 407.1,325.22 409.66,330.53C411.03,333.41 413.13,335.85 415.32,338.15C415.05,338.71 414.51,339.82 414.24,340.38C412.24,338.88 410.18,337.46 408.2,335.93C403.76,332.64 401.05,327.7 397.63,323.48C392.82,317.38 389.67,310.21 385.17,303.91C382.46,299.14 382.09,293.5 380.41,288.35C379.42,288.31 378.43,288.28 377.45,288.26C377.28,294.53 376.3,300.76 376.26,307.05C376.23,319.37 375.67,331.83 378.27,343.96C379.19,348 380.07,352.06 380.24,356.21C378.21,354.76 376.13,353.33 374.48,351.43C372.2,348.9 370.8,345.5 367.7,343.8C366.85,348.46 365.87,353.31 367.11,358C367.97,361.46 368.53,365 368.28,368.57C366.36,368.01 364.65,367.01 363.15,365.7C362.9,366.05 362.39,366.75 362.13,367.1C355.17,359.3 349.96,350.15 345.09,340.96C337.83,326.43 332.88,310.75 330.47,294.69C330,291.6 329.28,288.55 328.32,285.57C326.4,303.69 330.48,321.86 335.93,339.05C338.5,347.55 341.99,355.78 346.56,363.39C350.77,370.16 354.89,377.09 360.64,382.69C363.35,386.53 366.82,389.71 370.98,391.93C375.98,394.68 380.21,398.89 385.88,400.31C387.35,400.62 388.28,401.84 389.28,402.86C384.8,404.65 379.93,404.64 375.19,404.72C374.87,405.45 374.56,406.18 374.26,406.92C378.28,413.43 386.01,416.2 390.05,422.69C388.6,424.07 386.51,425.53 387.38,427.86C388.86,432.26 392.86,435.39 393.88,440.04C394.75,453.8 399.38,467.03 405.85,479.11C409.53,487.81 416.51,494.4 422.99,501.02C426.35,504.53 430.28,507.45 434.54,509.77C436.29,510.77 438.02,511.79 439.77,512.81C434.45,514.71 429.11,511.22 423.99,510.02C429.67,517.3 436.55,523.59 441.73,531.28C447.72,540.1 455.38,547.6 461.72,556.16C469.51,567.92 475.6,581 478.34,594.89C480.26,610.33 477.41,626.12 471.46,640.4C469.01,646.22 465.02,651.17 460.75,655.75C458.65,657.93 459.52,661.22 459.29,663.96C459.58,671.33 458.72,678.67 458.73,686.03C459.15,701.5 456.55,716.79 453.49,731.89C451.23,742.03 448.76,752.16 444.81,761.8C439.83,773.79 435.83,786.9 437.92,800L420.05,800C418.6,785.77 420.04,771.49 422.04,757.4C418.13,764.16 413.76,770.73 408.36,776.42C403.05,781.28 396.22,784.63 389,785.36C385.12,785.63 381.23,785.16 377.44,784.37C380.79,782.83 384.41,782.11 387.95,781.2C396.52,778.64 402.66,771.53 407.31,764.25C412.86,755.52 416.3,745.7 419.29,735.86C421.41,728.25 422.92,720.48 424.19,712.68C425.49,706.17 426.03,699.54 426.61,692.94C427.49,685.81 428.29,678.65 428.33,671.46C428.62,658.2 429.93,644.89 428.35,631.67C426.6,634.55 426.06,637.93 425.02,641.1C423.11,647.32 420.33,653.25 417.07,658.87C411.07,668.79 402.17,676.71 392.03,682.23C399.34,672.9 406.44,663.18 411.05,652.2C414.47,644.59 416.57,636.43 417.43,628.14C418.57,617.81 419.62,607.37 418.82,596.97C417.91,589 414.45,581.55 410.31,574.76C405.98,567.3 399.64,561.34 394.67,554.34C379.8,536.28 364.14,518.9 349.54,500.62C344.64,494.06 336.19,492.11 330.39,486.64C325.27,481.9 320.46,476.43 318.41,469.63C314.29,456.76 317.22,443.18 316.63,429.99C315.3,439.28 313.33,448.47 311.61,457.69C308.74,472.61 304.45,487.19 300.75,501.91C296.12,511.92 291.16,522.2 291.18,533.49C288.23,538.75 286.28,544.47 284.04,550.05C276.33,569.86 267.83,589.37 258.44,608.46C256.88,611.51 255.79,614.77 254.89,618.07C251.22,622.93 247.29,627.62 242.98,631.93C235.49,639.5 228.4,647.54 222.62,656.5C218.49,662.89 219.08,671.21 222.21,677.88C207.96,703.21 193.98,728.72 178.11,753.09C168.53,769.33 156.82,784.16 146.64,800L79.19,800C83.09,790.65 87.53,781.54 91.94,772.42C81.5,778.66 71.14,785.18 59.82,789.73C53.29,792.26 46.7,794.74 39.9,796.49C35.94,797.16 31.82,797.66 28.41,800L0,800L0,775.82C22.12,760.45 47.84,751.16 69.36,734.86C67.1,731.03 64.66,727.27 62.96,723.14C58.3,711.51 57.7,698.3 61.43,686.33C65.99,670.8 76.61,658.07 87.23,646.25C90.19,642.75 93.47,639.54 97,636.63C109.92,624.9 123.9,614.44 137.49,603.52C153.8,590.55 170.68,578.27 186.35,564.51C189.05,562.05 189.16,558.19 189.99,554.89C192.12,546.15 194.67,537.51 197.62,529.01C199.55,523.26 202.62,517.93 203.99,511.99C197.36,514.49 191.27,518.28 184.48,520.41C172.69,524.27 160.49,527.61 147.99,527.57C138.63,527.91 129.36,524.67 121.73,519.35C118.11,516.89 115.93,512.38 116.54,508.01C116.94,503.81 120.19,500.82 122.46,497.53C126.66,491.56 130.43,485.31 134.08,479C143.02,462.46 152.03,445.88 163.02,430.59C171.81,419.51 180.8,408.58 189.24,397.23C192.9,392.34 195.21,386.65 198.4,381.48C201.33,376.17 204.82,371.08 206.67,365.25C202.76,362.83 198.71,360.64 194.85,358.15C189.65,354.89 185.91,349.13 185.49,342.98C185.79,335.43 191.51,329.39 197.98,326.18C193.2,328.16 188.38,330.83 183.03,330.53C179.41,330.42 175.28,328.67 174.18,324.92C171.87,319.36 175.34,313.88 178.49,309.5C182.63,303.91 185.93,297.74 190.3,292.32C197.44,283.61 205.34,275.52 213.98,268.3C206.96,264.45 199.72,260.79 191.93,258.74C187.41,257.53 182.37,256.57 179.26,252.71C176.84,249.89 173.07,247.29 173.39,243.13C173.07,239.56 174.94,235.75 178.3,234.28C186.59,230.49 195.82,228.87 203.64,224.02C209,220.65 214.63,217.56 219.14,213.05C214.22,208.58 208.84,204.55 204.7,199.29C202.13,196 199.18,192.36 199.39,187.94C199.23,183.06 203.81,179.47 208.11,178.24C213.95,176.82 220.04,177.5 225.99,177.32C231.96,177.1 237.85,178.12 243.76,178.71C243.67,173.39 241.82,168.31 241.51,163.01C240.73,151.1 240.47,138.98 236.53,127.57C235.03,122.02 231.28,115.47 235.02,110.04C237.52,106.19 242.44,106.2 246.5,106.71C247.08,101.13 248.61,94.86 253.87,91.85C260.66,86.85 271.07,89.8 274.66,97.31C277.9,102.04 274.88,108.41 278.48,112.94C281.05,116.85 283.35,120.98 286.48,124.48C289.89,127.88 294.19,131.25 299.31,130.65C299.99,121.19 297.15,112.02 295.52,102.81C295.25,97.78 289.39,96.83 287.07,93.07C282.36,86.56 283.65,76.16 290.7,71.84C294.51,69.12 299.37,69.2 303.82,69.59C308.98,70.18 313.39,74.08 315.17,78.87C316.29,82.69 315.44,86.69 314.51,90.46C313.51,93.46 316.13,95.81 317.64,98.07C320.08,93.64 321.16,88.09 325.38,84.91C328.37,83.85 331.93,83.9 334.94,84.85C338.74,87.37 341.04,91.92 341.7,96.36C342.21,96.45 342.73,96.53 343.24,96.62C341.76,93.44 342.74,89.72 341.43,86.53C338.62,82.68 334.46,79.25 334.38,74.07C333.18,66.22 338.4,58.16 346.06,56.08C354.8,53.69 364.39,60.95 364.54,70.02C365.22,74.03 362.66,77.39 361.45,81C361.46,83.07 362.52,84.96 363.16,86.89C365.34,92.08 366.14,97.68 367.72,103.05C374.61,99.93 380.95,95.65 388.15,93.22C396.99,89.77 406.36,88.05 415.7,86.59C432.97,84.28 450.47,82.43 467.86,84.51C483.74,86.03 499.04,90.87 514.09,95.93C526.36,100.29 537.52,107.21 549.67,111.79C548.91,103.89 547.14,95.95 548.23,87.99C548.76,79.33 551.2,70.93 553.71,62.66M560.71,67.77C556.96,80.39 554.27,93.86 557.32,106.93C558.23,113.71 560.71,120.18 561.63,126.92C553.68,123.04 545.74,118.84 536.99,117.07C526.89,115.04 516.57,114.03 506.28,114.32C506.88,121.76 510.7,128.37 514.43,134.64C518.71,141.65 523.04,148.63 527.73,155.36C535.16,165.11 542.72,174.99 552.48,182.56C558.89,187.62 565.06,193.48 572.96,196.11C575.09,197.18 576.82,194.96 576.98,193.03C577.69,188.38 577.74,183.64 578.57,178.99C580.16,170.07 579.65,160.92 577.99,152.05C577.51,149.36 576.59,146.7 576.65,143.95C577.86,140.96 580.26,138.69 582.49,136.45C590.41,129.32 600.32,124.7 610.72,122.54C608.91,110.1 604.29,98.03 597.45,87.49C588.83,75.67 578.06,65.41 565.94,57.25C563.03,60.07 561.91,64.04 560.71,67.77M343.1,75.82C344.29,77.8 346.53,78.69 348.26,80.1C350.71,89.72 351.76,100.22 347.68,109.57C346.32,113.15 343.52,116.36 344.26,120.45C340.46,112.88 336.98,105.15 333.81,97.3C332.91,95.01 331.84,92.75 330.13,90.94C327.44,93.72 326.54,97.6 325.31,101.14C324.01,106.37 322.92,111.79 323.2,117.2C314.43,110.28 308.11,100.61 304.55,90.08C308.04,87.26 309.31,80.59 304.8,78.12C301.3,76.86 296.52,76.71 294.03,79.96C291.29,82.48 291.27,87.28 294.56,89.36C296.66,91.51 300.84,91 301.8,94.21C304.12,103.36 305.63,112.69 306.92,122.03C307.48,127.01 307.34,132.17 305.75,136.95C305.24,138.61 303.68,139.8 301.92,139.65C295.71,140.62 290.17,137.05 285.15,133.92C277.45,128.02 272.52,119.33 268.31,110.76C267.68,107.38 269.8,103.57 267.35,100.49C264.87,96.39 258.99,96.83 256.01,100.13C254.86,103.81 254.3,108.61 257.92,111.14C259.75,113.17 262.53,112.12 264.89,112.21C266.4,114 267.5,116.08 268.56,118.16C271.23,123.82 274.67,129.08 277.1,134.84C268.53,129.48 260.6,122.82 251.01,119.24C247.49,118.09 244.46,115.86 241.01,114.58C242.52,121.15 245.13,127.43 246.45,134.06C247.32,137.53 247.46,141.15 248.43,144.6C248.99,152.36 248.63,160.22 250.32,167.86C250.74,173.15 252.79,178.13 254.45,183.12C255.22,185.58 256.5,187.82 257.93,189.94C253.57,189.69 249.43,188.25 245.18,187.41C235.6,185.36 225.75,184.7 215.98,185.18C212.78,185.49 209.21,185.68 206.85,188.18C213,199.08 223.81,206.22 233.55,213.66C229.45,216.17 225.43,218.83 221.51,221.6C212.14,229.36 201.15,235.11 189.58,238.81C186.67,239.93 183.29,240.44 181.11,242.9C182.91,244.05 184.67,245.33 185.76,247.22C186.86,249.35 189.42,249.7 191.49,250.31C196.87,251.58 202.15,253.33 207.09,255.82L207.44,255.86C216.02,261 225.86,264.03 235.74,265.48C224.57,269.79 215.55,277.93 206.63,285.66C199.47,293.52 193.05,302.06 187.45,311.1C185.01,314.68 182.42,318.32 181.45,322.63C187.32,322.12 192.29,318.62 197.86,317.04C207.67,314.12 217.02,309.95 226.64,306.5C230.42,305.23 233.76,301.87 237.8,301.86C229.1,309.1 222.2,318.26 213.35,325.32C207.52,329.08 202.11,333.42 196.62,337.64C194,339.42 192.65,343.02 194.37,345.88C197.02,351.18 202.74,353.45 207.4,356.59C212.67,359.23 217.93,361.92 223,364.94C226.21,367.4 224.01,371.71 223.45,374.92C222.06,381.93 220.1,390.63 225.52,396.44C228.71,400.06 233.67,400.26 238.13,400.36C237.87,403.09 238.47,406.24 236.63,408.56C232.01,415.22 227.35,421.88 221.9,427.89C216.82,433.8 210.83,438.8 205.14,444.1C196.27,451.94 187.42,459.81 178.63,467.75C167.05,479.18 155.22,490.56 145.87,503.95C144.31,505.91 143.81,508.38 144.18,510.84C152.42,512.81 160.86,510.77 168.85,508.68C177.02,506.38 185.23,503.76 192.57,499.43C197.15,496.35 201.94,493.59 206.37,490.29C221.94,478.51 234.5,463.06 244.28,446.24C249.69,436.94 253.85,426.98 258.15,417.14C259.78,413.09 261.77,409.14 262.66,404.84C262.02,402.77 260.94,400.86 259.98,398.93C258.75,399.88 257.51,400.81 256.39,401.89C257.91,398.8 258.84,395 262.13,393.27C263.77,396.13 263.94,399.37 263.4,402.55C268.38,401.37 273.77,399.37 276.84,395.04C277.89,394.11 278.28,391.51 279.98,391.93C282.78,395.03 284.47,399.19 287.97,401.64C290.25,402.17 292.16,400.27 293.37,398.59C298,391.25 299.69,382.59 301.2,374.18C303.27,364.27 303.58,354.14 303.73,344.06C303.69,337.13 310.48,332.01 309.47,324.97C308.76,322.01 308.07,319.02 308.25,315.96C309.53,314 311.68,312.72 312.93,310.71C313.37,308.71 311.25,306.93 311.97,304.89C312.12,302.96 313.12,300.84 311.97,299.04C310.55,296.75 307.57,296.81 305.23,296.52C306.76,293.94 309.7,292.81 311.73,290.72C314.12,288.53 315.29,285.48 316.71,282.66C321,275.16 325,267.34 331.11,261.11C333.02,259.37 335.66,258.92 338.01,258.06C342.84,256.74 347.57,255.02 352.37,253.6C352.81,253.49 353.67,253.28 354.11,253.17C354.49,245.08 354.89,236.99 354.7,228.89C357.82,228.11 360.72,226.03 362.26,223.2C363.47,220.83 360.12,219.96 359.5,218.03C358.87,213.28 358.78,207.96 361.9,204C364.83,198.29 367.96,191.13 374.95,189.7C378.75,190.95 382.76,191.54 386.74,191.92C386.93,185.03 384.83,178.28 381.34,172.39C386.83,168.54 393.23,165.81 397.78,160.74C400.23,157.87 402.78,154.91 403.96,151.26C400.46,148.8 396.15,148.21 392.03,147.68C387.51,147.47 383.2,149.2 379.09,150.88C380.26,144.02 380.73,137.05 380.06,130.11C379.49,126.04 379.92,121.51 377.08,118.16C371.69,119.02 369.35,124.48 366.65,128.52C367.12,123.94 365.21,119.16 361.02,117.02C359.63,104.04 356.81,91.19 352.13,78.99C354.25,76.83 356.64,74.33 356.44,71.05C356.66,67.74 354.16,64.68 351,63.9C344.87,62.42 339.69,70.78 343.1,75.82M430.93,130.67C426.26,131.54 421,132.66 417.91,136.6C424.21,137.68 430.72,137.42 436.92,139.15C445.7,141.63 454.14,145.3 462.05,149.84C471.46,154.72 480.19,160.82 488.41,167.49C490.5,169.21 492.71,170.8 495.13,172.04C493.69,167.85 490.31,164.83 487.41,161.65C477.33,150.97 465.13,142.46 451.95,136.05C445.31,133.23 438.4,129.45 430.93,130.67M327.16,420.88C325.19,432.52 322.78,444.16 322.65,456.01C322.64,461.68 323.72,467.46 326.55,472.43C330.73,479.86 338.03,485.11 345.96,487.91C351.6,489.45 357.82,489.08 363.15,486.63C359.85,483.62 355.37,482.52 351.59,480.28C342.89,475.84 336.55,467.5 333.48,458.34C328.78,445.68 330.05,432.03 328.44,418.86C327.65,419.3 327.22,419.97 327.16,420.88M738.98,441.99C740.02,445.35 741.58,448.52 743.49,451.48C752.59,465.92 762.52,479.89 770.32,495.11C774.25,503.15 777.88,511.33 781.32,519.59C783.23,524.44 787.09,528.04 790.91,531.42C791.76,531.52 792.61,531.63 793.47,531.75C797.07,524.79 798.02,516.59 796.12,508.99C792.12,492.63 781.14,479.18 769.72,467.27C763.28,461.03 756.37,455.31 749.68,449.35C746.26,446.72 743.26,443.19 738.98,441.99M823.77,596.48C824.41,598.55 825.19,603.26 828.12,602.37C832.83,610.25 838.26,617.71 844.45,624.5C845.42,625.61 846.69,626.37 848.03,627.01C849.53,624.04 850.77,620.87 850.66,617.49C846.25,613.26 841.89,608.92 836.84,605.44C836.51,604.13 835.89,602.91 834.66,602.27C831.17,600.1 827.85,597.43 823.77,596.48M147.57,631.25C131.07,642.61 114.21,653.73 100.01,667.99C90.75,677.11 82.52,688.69 81.6,702.04C81.41,708.61 83.99,714.75 86.55,720.66C88.27,719.33 89.98,717.98 91.54,716.45C113.69,695.35 131.26,669.99 146.84,643.8C150.6,637.9 154.47,632.05 157.82,625.9C158.28,625.47 159.2,624.6 159.66,624.17C155.35,626.03 151.49,628.71 147.57,631.25Z" style="fill:rgb(243,245,248);fill-rule:nonzero;"/>
                                </g>
                            </g>
                            <g id="_-b5cfe7ff" serif:id="#b5cfe7ff" transform="matrix(1,0,0,0.78125,0,0)">
                                <g transform="matrix(1,0,0,1,0,224)">
                                    <path d="M560.71,67.77C561.91,64.04 563.03,60.07 565.94,57.25C578.06,65.41 588.83,75.67 597.45,87.49C604.29,98.03 608.91,110.1 610.72,122.54C600.32,124.7 590.41,129.32 582.49,136.45C580.26,138.69 577.86,140.96 576.65,143.95C576.59,146.7 577.51,149.36 577.99,152.05C579.65,160.92 580.16,170.07 578.57,178.99C577.74,183.64 577.69,188.38 576.98,193.03C576.82,194.96 575.09,197.18 572.96,196.11C565.06,193.48 558.89,187.62 552.48,182.56C542.72,174.99 535.16,165.11 527.73,155.36C523.04,148.63 518.71,141.65 514.43,134.64C510.7,128.37 506.88,121.76 506.28,114.32C516.57,114.03 526.89,115.04 536.99,117.07C545.74,118.84 553.68,123.04 561.63,126.92C560.71,120.18 558.23,113.71 557.32,106.93C554.27,93.86 556.96,80.39 560.71,67.77Z" style="fill:rgb(181,207,231);fill-rule:nonzero;"/>
                                </g>
                                <g transform="matrix(1,0,0,1,0,224)">
                                    <path d="M546.01,431.65C553.1,422.82 558.76,412.96 563.54,402.71C563.35,411.56 562.07,420.34 561.75,429.18C560.39,443.44 561.82,457.75 563.7,471.9C556.67,468.59 548.6,469.88 541.37,467.23C542.79,455.35 543.47,443.37 546.01,431.65Z" style="fill:rgb(181,207,231);fill-rule:nonzero;"/>
                                </g>
                                <g transform="matrix(1,0,0,1,0,224)">
                                    <path d="M393.98,438.05C399.31,443.9 405.55,449.04 412.98,451.97C427.86,458.16 443.62,461.9 459.29,465.42C460.88,471.6 460.75,478.12 462.6,484.22C463.38,487.03 466.4,487.32 468.82,487.73C473.5,488.18 474.76,494.82 479.73,494.65C487.56,494.15 496.28,491.32 503.53,495.66C508.44,500.26 508.54,507.55 510.11,513.68C511.18,517.49 512.6,522.45 517.25,523C522.12,514.53 520.8,503.94 525.48,495.42C528.86,490.78 535.02,493.05 539.82,492.61C541.05,492.74 541.49,491.3 542.19,490.56C544.05,487.39 546.63,484.64 549.88,482.85C554.73,480.13 559.31,476.96 563.87,473.76C565.3,486.89 567.35,499.96 569.26,513.03C570.07,521.74 571.04,530.45 572.72,539.04C575.26,557.38 580.86,575.15 587.9,592.23C597.85,612.62 609.59,633.12 628.04,646.99C635.58,653 644.51,656.73 653.04,661.04C656.84,662.72 657.84,667.09 659.39,670.54C659.42,676.27 659.55,682.22 657.47,687.66C656.51,690.03 653.71,692.29 651.1,691.04C643.7,687.87 639.6,680.51 633.85,675.29C634.76,681.35 638.1,686.66 639.4,692.63C641.51,699.96 640.35,707.81 642.89,715.05C646.6,725.75 651.16,736.52 651.37,748.02C651.62,755.39 647.78,761.9 646.18,768.91C645.58,771.66 644.57,774.31 643.31,776.83C640.79,776.3 638.28,775.81 635.81,775.12C635.81,774.59 635.8,773.52 635.79,772.99C637.05,768.56 639.15,764.41 640.29,759.95C640.51,756.32 638.53,753.02 637.24,749.74C628.59,728.85 619.17,708.27 608.89,688.13C601.56,672.46 593.23,657.29 584.95,642.12C573.97,621.13 561.94,600.71 550.68,579.89C549.28,567.38 553.6,554.58 550.83,542.09C549.46,540.09 546.71,539.56 544.62,538.48C534.28,533.79 522.5,534.41 511.63,536.62C509.36,537.31 507.23,538.36 505.1,539.38C489.81,535.07 475.85,527.3 461.63,520.43C453.06,516.48 445.96,510.14 438.2,504.9C436.97,506.52 435.75,508.14 434.54,509.77C430.28,507.45 426.35,504.53 422.99,501.02C416.51,494.4 409.53,487.81 405.85,479.11C399.38,467.03 394.75,453.8 393.88,440.04C393.91,439.54 393.96,438.55 393.98,438.05Z" style="fill:rgb(181,207,231);fill-rule:nonzero;"/>
                                </g>
                                <g transform="matrix(1,0,0,1,0,224)">
                                    <path d="M608.98,449.25C609.47,448.21 610.01,447.2 610.55,446.18C613.07,451.59 616.05,456.76 618.93,461.98C623.28,470.72 629.07,478.61 633.94,487.04C635.05,488.47 636.17,491.43 638.47,490.45C643.5,488.15 648.33,485.39 653.56,483.54C657.11,482.21 661.46,480.69 664.9,483.09C669.03,486.47 671.73,491.65 672.21,496.96C672.53,502.81 671.84,508.68 672.42,514.54C674.29,515.64 676.14,516.78 678.06,517.82C677.54,517.79 676.5,517.72 675.99,517.69C680.78,526.77 685.05,536.9 683.49,547.4C683.17,551.13 681.51,554.53 679.34,557.53C683.41,558.83 686.73,561.92 687.94,566.09C690.52,574.46 690.29,583.46 689.32,592.09C688.85,598.09 682.76,601.77 682.37,607.78C685.23,610.9 690.06,613.09 690.13,617.95C691.05,623.62 687.83,628.55 685.45,633.39C682.96,638.35 682.95,644.04 683.64,649.42C677.56,644.5 672.97,638.1 667.54,632.52C656.76,619.55 647.74,605.23 639.44,590.57C628.23,569.72 620.35,547.31 613.1,524.85C610.29,515.86 609.95,506.38 609.36,497.05C608.14,481.15 608,465.17 608.98,449.25Z" style="fill:rgb(181,207,231);fill-rule:nonzero;"/>
                                </g>
                                <g transform="matrix(1,0,0,1,0,224)">
                                    <path d="M307.33,498.81C309.73,497.67 312.25,496.47 314.98,496.62C326.62,496.85 337.91,500.29 349.54,500.62C364.14,518.9 379.8,536.28 394.67,554.34C399.64,561.34 405.98,567.3 410.31,574.76C414.45,581.55 417.91,589 418.82,596.97C419.62,607.37 418.57,617.81 417.43,628.14C416.57,636.43 414.47,644.59 411.05,652.2C399.92,645.28 393.93,633.17 385.15,623.86C376.08,614.34 370.08,602.03 368.26,589C367.45,582.4 368.2,575.72 367.32,569.13C366.61,564.37 361.89,560.47 357.03,561.22C354.3,561.74 351.78,562.95 349.19,563.92C346.11,559.13 345.46,553.4 344.02,548.02C342.13,540.39 339.66,532.65 334.75,526.38C329.53,519.61 324.88,512.16 318.05,506.85C314.59,504.02 311.12,501.19 307.33,498.81Z" style="fill:rgb(181,207,231);fill-rule:nonzero;"/>
                                </g>
                                <g transform="matrix(1,0,0,1,0,224)">
                                    <path d="M423.99,510.02C429.11,511.22 434.45,514.71 439.77,512.81C439.96,512.83 440.34,512.86 440.54,512.88C440.59,513.38 440.68,514.38 440.73,514.88C449.53,520.99 458.18,527.32 467.56,532.51C476.5,538.36 486.62,541.87 496.22,546.42C494.28,549.42 493.58,553.43 495.77,556.51C499.44,562.28 504.28,567.2 507.94,572.99C510.77,577.42 514.46,581.21 517.4,585.54C518.83,590.54 518.42,595.87 519.19,601C522.45,624.56 525.06,648.21 527.58,671.86C528.31,685.22 529.84,698.54 529.81,711.93C529.86,717.92 530.49,723.91 530.2,729.92C529.61,739.63 529.73,749.41 528.09,759.03C528.03,760.77 527.1,762.94 528.6,764.35C531.69,767.91 535.19,771.11 538.44,774.53C529,776.19 520.06,780.18 510.43,780.8C508.09,772.58 506.33,764.22 504.03,755.99C501.21,744.47 499.74,732.67 497.79,720.99C495.86,704.68 493.57,688.14 487.41,672.8C486.31,674.66 485.04,676.51 484.75,678.71C483.65,687.05 485.11,695.64 483.1,703.87C482.68,706.63 479.32,706.47 477.37,705.54C468.68,701.92 463.61,693.58 458.73,686.03C458.72,678.67 459.58,671.33 459.29,663.96C459.52,661.22 458.65,657.93 460.75,655.75C465.02,651.17 469.01,646.22 471.46,640.4C477.41,626.12 480.26,610.33 478.34,594.89C475.6,581 469.51,567.92 461.72,556.16C455.38,547.6 447.72,540.1 441.73,531.28C436.55,523.59 429.67,517.3 423.99,510.02Z" style="fill:rgb(181,207,231);fill-rule:nonzero;"/>
                                </g>
                                <g transform="matrix(1,0,0,1,0,224)">
                                    <path d="M686.75,523.85C695.07,531.1 702.46,539.6 707.7,549.36C712.37,557.36 716.85,565.48 721.61,573.44C724.16,577.16 727.12,580.57 729.74,584.24C733.64,589.67 739.4,593.31 743.7,598.37C751.9,606.62 760.38,615.01 765.45,625.65C768.49,631.8 768.54,638.96 767.57,645.62C765.9,655.16 763.46,664.7 758.84,673.28C760.08,662.82 763.86,652.31 761.34,641.73C760.83,639.36 758.55,636.87 755.94,638.02C749.98,639.57 746.73,645.33 744.66,650.66C740.9,658.82 742.96,668.27 739.5,676.52C738.79,678.11 737.4,679.23 736.23,680.46C736.02,671.26 737.91,662.17 737.91,652.98C738.04,649.38 736.48,645.6 733.41,643.59C731.91,642.46 729.93,643.66 729.04,644.98C728.01,646.84 727.69,648.98 727.22,651.04C725.25,661.69 718.38,670.48 714.63,680.47C712.68,677.69 710.94,674.77 708.98,672C705.08,666.87 700.15,662.64 695.12,658.66C697.44,648.96 698.02,638.93 698.23,629C698.46,617.16 694.73,605.8 692.84,594.24C691.6,581.87 694.63,568.3 687.86,557.06C685.64,554.15 686.32,550.38 686.47,547C687.02,539.29 686.69,531.56 686.75,523.85Z" style="fill:rgb(181,207,231);fill-rule:nonzero;"/>
                                </g>
                                <g transform="matrix(1,0,0,1,0,224)">
                                    <path d="M312.39,567.5C317.49,564.44 323.18,562.19 329.08,561.36C330.76,560.88 331.43,562.67 332.19,563.79C335.32,569.33 337.56,575.42 341.57,580.44C346.93,587.68 354.28,593.13 359.84,600.19C364.55,606.89 362.32,615.64 364.78,623.07C367.76,632.72 375.57,639.6 381.31,647.59C383.8,651.07 387.01,654.49 387.18,659.02C388.11,669.63 388.77,680.37 387.43,690.98C386.54,698.37 385.96,705.85 383.96,713.05C382.63,717.99 381.65,723.28 378.36,727.37C374.58,732.37 369.25,735.85 364.01,739.14C356.95,743.35 348.38,744.55 340.38,742.74C348.34,739.3 357.31,737.08 363.44,730.51C365.88,728.12 367.99,724.28 366.1,720.97C362.66,716.98 357.04,715.92 352.02,716.58C345.28,717.42 338.69,719.3 332.23,721.37C326.92,723.08 322.12,725.97 316.99,728.12C315.48,725.06 315.38,721.59 314.61,718.32C311.65,705.57 308.73,692.8 305.7,680.06C304.17,675.04 302.61,669.82 299.36,665.6C295.53,660.88 287.15,660.27 283.4,665.41C279.22,671.79 280.23,679.82 280.44,687.05C281.61,695.89 282.87,704.79 285.72,713.27C286.12,714.64 286.69,716.08 286.35,717.55C280.35,710.21 274.53,702.71 268.87,695.1C263.44,688.47 258.24,681.62 253.81,674.28C250.71,668.98 247.91,663.28 247.35,657.09C246.9,651.77 249.27,646.81 250.95,641.91C256.56,627.92 268.21,617.59 280.42,609.33C292.25,601.74 300.31,589.64 306.17,577.11C307.81,573.69 308.91,569.56 312.39,567.5Z" style="fill:rgb(181,207,231);fill-rule:nonzero;"/>
                                </g>
                                <g transform="matrix(1,0,0,1,0,224)">
                                    <path d="M425.02,641.1C426.06,637.93 426.6,634.55 428.35,631.67C429.93,644.89 428.62,658.2 428.33,671.46C424.23,667.58 420.74,663.13 417.07,658.87C420.33,653.25 423.11,647.32 425.02,641.1Z" style="fill:rgb(181,207,231);fill-rule:nonzero;"/>
                                </g>
                                <g transform="matrix(1,0,0,1,0,224)">
                                    <path d="M844.6,639.56C847.21,637.67 850.48,637.27 853.59,636.88C850.9,643.85 847.99,650.76 845.74,657.89C842.13,669.62 845.39,682.09 849.86,693.11C851.76,698.14 854.95,702.8 855.54,708.25C855.82,714.35 849.02,717.97 849.22,724.05C849.03,726.67 851.5,728.23 853.05,729.97C857.61,733.98 859.86,740.05 860.31,745.99C860.18,752.76 855.74,758.44 854.68,765C855.41,768.59 858.43,771.02 860.54,773.83C865.78,781.86 868.31,791.23 872.01,800L755.68,800C757.57,786.32 760.8,772.88 763.38,759.32C766.09,747.8 768.82,736.15 774.06,725.46C770.75,725.44 768.36,728 766.07,730.03C758.2,737.54 751.5,746.14 744.66,754.57C737.34,763.33 731.51,773.17 726.14,783.2C723.71,787.04 722.26,791.81 718.32,794.45C714.67,770.73 718.62,746.76 718.87,722.94C719.06,720.45 718.43,717.39 720.61,715.59C724.39,711.74 729.72,710.14 734.14,707.19C739.43,703.71 744.54,699.96 750.05,696.82C750.14,694.78 750.21,692.75 750.41,690.73C750.94,693.02 751.19,695.48 752.45,697.53C756.75,704.08 762.77,709.2 768.09,714.88C769.58,716.15 771.43,718.23 773.61,717.34C776.85,715.88 779.92,713.92 782.56,711.55C784.63,708.56 785.67,704.9 788.31,702.28C792.86,697.4 796.73,691.95 800.64,686.56C804.38,681.33 809.57,677.45 814.71,673.69C820.3,669.8 823.68,663.71 828.39,658.91C833.4,652.18 837.67,644.6 844.6,639.56Z" style="fill:rgb(181,207,231);fill-rule:nonzero;"/>
                                </g>
                                <g transform="matrix(1,0,0,1,0,224)">
                                    <path d="M403.34,686.01C403.64,684.37 404.9,683.18 405.82,681.89C413.11,691.45 417.68,702.64 424.19,712.68C422.92,720.48 421.41,728.25 419.29,735.86C419.13,734.52 418.42,733.4 417.48,732.49C410.75,725.63 407.18,716.44 404.5,707.39C402.31,700.51 401.97,693.08 403.34,686.01Z" style="fill:rgb(181,207,231);fill-rule:nonzero;"/>
                                </g>
                                <g transform="matrix(1,0,0,1,0,224)">
                                    <path d="M650.76,703.98C653.26,704.08 655.98,704.22 657.81,706.21C663.86,711.88 670.41,717.48 673.78,725.28C676.96,732.73 679.07,741.77 675.27,749.38C671.14,756.13 662.8,758.42 655.45,759.55C656.51,753.43 657.84,747.25 657.11,741.01C656.35,728.44 651.47,716.53 650.76,703.98Z" style="fill:rgb(181,207,231);fill-rule:nonzero;"/>
                                </g>
                                <g transform="matrix(1,0,0,1,0,224)">
                                    <path d="M471.97,717.92C477.62,720.91 483.98,720.26 490.11,719.85C491.2,723.88 491.69,728.05 492.67,732.12C494.75,741.04 497.46,749.88 498.12,759.07C498.13,760.83 497.53,762.54 497.13,764.26C489.61,765.1 481.99,764.46 474.52,765.69C474.48,765.91 474.41,766.34 474.37,766.56C477.45,769.3 481.56,771.2 483.3,775.18C475.9,773.22 469.07,769.49 462.76,765.23C460.36,763.48 457.38,761.31 457.68,757.95C458.12,753.05 460.37,748.58 462.13,744.06C465.49,735.37 468.9,726.71 471.97,717.92Z" style="fill:rgb(181,207,231);fill-rule:nonzero;"/>
                                </g>
                                <g transform="matrix(1,0,0,1,0,224)">
                                    <path d="M253.33,753.33C257.41,749.28 262.54,746.18 268.33,745.46C265.81,750.41 262.12,754.6 259.17,759.28C255.12,765.09 252.08,771.51 248.65,777.68C246.67,781.27 244.95,785.24 245.62,789.44C251.13,790.39 255.66,786.65 260.02,783.93C269.56,777.99 279.22,772.13 287.82,764.87C292.25,761.23 296.07,756.96 300.12,752.93C301.3,760.68 297.93,768.43 299.86,776.14C300.44,778.27 301.33,781.08 303.92,781.39C306.62,781.26 308.9,779.6 310.98,778.03C315.68,774.26 320.1,770.14 324.96,766.57C323.92,777.78 322.05,788.93 319.96,800L218.01,800C220.57,796.21 222.83,792.22 225.62,788.59C234.68,776.71 242.47,763.72 253.33,753.33Z" style="fill:rgb(181,207,231);fill-rule:nonzero;"/>
                                </g>
                            </g>
                            <g id="_-443742ff" serif:id="#443742ff" transform="matrix(1,0,0,0.78125,0,0)">
                                <g transform="matrix(1,0,0,1,0,224)">
                                    <path d="M343.1,75.82C339.69,70.78 344.87,62.42 351,63.9C354.16,64.68 356.66,67.74 356.44,71.05C356.64,74.33 354.25,76.83 352.13,78.99C356.81,91.19 359.63,104.04 361.02,117.02C365.21,119.16 367.12,123.94 366.65,128.52C364.77,133.46 363.9,138.73 363.56,143.98C363.59,148.37 364.5,152.7 364.69,157.09C364.89,160.22 368.09,162.15 368.64,165.12C368.01,170.08 364.26,174.77 366.12,179.93C367.09,184.53 370.89,187.75 374.95,189.7C367.96,191.13 364.83,198.29 361.9,204C358.78,207.96 358.87,213.28 359.5,218.03C360.12,219.96 363.47,220.83 362.26,223.2C360.72,226.03 357.82,228.11 354.7,228.89C354.89,236.99 354.49,245.08 354.11,253.17C353.67,253.28 352.81,253.49 352.37,253.6C354.31,247.93 353.36,241.83 353.69,235.95C353.5,230.44 354.78,224.41 351.8,219.4C349.74,215.87 347.86,211.69 343.9,209.95C339.84,208.05 335.59,206.61 331.36,205.17C336.02,200.86 340.98,196.77 344.79,191.65C350.23,183.79 354.46,174.71 354.8,165.03C356.74,149.43 351.33,134.11 344.26,120.45C343.52,116.36 346.32,113.15 347.68,109.57C351.76,100.22 350.71,89.72 348.26,80.1C346.53,78.69 344.29,77.8 343.1,75.82Z" style="fill:rgb(68,55,66);fill-rule:nonzero;"/>
                                </g>
                                <g transform="matrix(1,0,0,1,0,224)">
                                    <path d="M294.03,79.96C296.52,76.71 301.3,76.86 304.8,78.12C309.31,80.59 308.04,87.26 304.55,90.08C308.11,100.61 314.43,110.28 323.2,117.2C323.61,120.94 323.47,124.75 322.4,128.37C318.73,141.53 310.51,152.67 304.95,165.01C299.24,158.65 295.24,150.89 288.86,145.11C284.96,141.67 280.92,138.38 277.1,134.84C274.67,129.08 271.23,123.82 268.56,118.16C267.5,116.08 266.4,114 264.89,112.21C262.53,112.12 259.75,113.17 257.92,111.14C254.3,108.61 254.86,103.81 256.01,100.13C258.99,96.83 264.87,96.39 267.35,100.49C269.8,103.57 267.68,107.38 268.31,110.76C272.52,119.33 277.45,128.02 285.15,133.92C290.17,137.05 295.71,140.62 301.92,139.65C303.68,139.8 305.24,138.61 305.75,136.95C307.34,132.17 307.48,127.01 306.92,122.03C305.63,112.69 304.12,103.36 301.8,94.21C300.84,91 296.66,91.51 294.56,89.36C291.27,87.28 291.29,82.48 294.03,79.96Z" style="fill:rgb(68,55,66);fill-rule:nonzero;"/>
                                </g>
                                <g transform="matrix(1,0,0,1,0,224)">
                                    <path d="M248.43,144.6C250.64,149.4 249.06,154.76 249.98,159.8C250.42,162.46 250.57,165.16 250.32,167.86C248.63,160.22 248.99,152.36 248.43,144.6Z" style="fill:rgb(68,55,66);fill-rule:nonzero;"/>
                                </g>
                                <g transform="matrix(1,0,0,1,0,224)">
                                    <path d="M293.2,195.39C295.23,191.04 295.4,186.11 297.43,181.75C298.06,188.01 295.45,194.27 297.69,200.4C299.62,200.87 301.59,201.92 303.63,201.49C306.1,200.56 308.33,199.11 310.69,197.93C310.63,199.73 310.76,201.57 310.39,203.35C309.22,206.1 306.99,208.25 305.76,210.97C305.53,216.09 307.63,221.03 307.48,226.17C306.14,228.55 303.57,226.71 301.64,226.29C298.26,224.85 294.31,225.09 291.21,227.08C285.9,229.71 284.11,235.98 279.44,239.34C276.34,241.24 272.5,240.65 269.28,239.42C269.71,230.51 275.99,223.46 282.91,218.52C281.11,217.64 279.19,216.93 277.63,215.66C277.45,214.36 277.33,213.06 277.28,211.76C272.1,207.33 265.3,205.09 258.59,204.49C249.31,203.48 240.85,208.54 233.55,213.66C223.81,206.22 213,199.08 206.85,188.18C209.21,185.68 212.78,185.49 215.98,185.18C225.75,184.7 235.6,185.36 245.18,187.41C249.43,188.25 253.57,189.69 257.93,189.94C263.78,199.92 273.37,207.63 284.14,211.72C280.58,205.95 276.6,199.75 277.22,192.65C280.03,192.36 282.81,191.6 284.51,189.15C288.31,189.62 290.43,193.17 293.2,195.39Z" style="fill:rgb(68,55,66);fill-rule:nonzero;"/>
                                </g>
                                <g transform="matrix(1,0,0,1,0,224)">
                                    <path d="M303.79,247.99C305.73,251.69 307.37,255.69 310.45,258.62C313.52,261.53 317.86,262.76 322.03,262.55C327.75,262.62 332.35,258.47 338.01,258.06C335.66,258.92 333.02,259.37 331.11,261.11C325,267.34 321,275.16 316.71,282.66C315.29,285.48 314.12,288.53 311.73,290.72C309.7,292.81 306.76,293.94 305.23,296.52C307.57,296.81 310.55,296.75 311.97,299.04C313.12,300.84 312.12,302.96 311.97,304.89C311.25,306.93 313.37,308.71 312.93,310.71C311.68,312.72 309.53,314 308.25,315.96C308.07,319.02 308.76,322.01 309.47,324.97C310.48,332.01 303.69,337.13 303.73,344.06C303.58,354.14 303.27,364.27 301.2,374.18C299.69,382.59 298,391.25 293.37,398.59C292.16,400.27 290.25,402.17 287.97,401.64C284.47,399.19 282.78,395.03 279.98,391.93C278.28,391.51 277.89,394.11 276.84,395.04C273.77,399.37 268.38,401.37 263.4,402.55C263.94,399.37 263.77,396.13 262.13,393.27C258.84,395 257.91,398.8 256.39,401.89C251.86,410.57 248.04,419.64 243.15,428.12C242.11,430.5 238.13,431.61 237.07,428.69C235.24,423.3 240.24,418.37 238.96,412.95C238.27,408.79 238.82,404.59 238.71,400.42L238.13,400.36C233.67,400.26 228.71,400.06 225.52,396.44C220.1,390.63 222.06,381.93 223.45,374.92C224.01,371.71 226.21,367.4 223,364.94C217.93,361.92 212.67,359.23 207.4,356.59C202.74,353.45 197.02,351.18 194.37,345.88C192.65,343.02 194,339.42 196.62,337.64C202.11,333.42 207.52,329.08 213.35,325.32C222.2,318.26 229.1,309.1 237.8,301.86C233.76,301.87 230.42,305.23 226.64,306.5C217.02,309.95 207.67,314.12 197.86,317.04C192.29,318.62 187.32,322.12 181.45,322.63C182.42,318.32 185.01,314.68 187.45,311.1C193.05,302.06 199.47,293.52 206.63,285.66C215.55,277.93 224.57,269.79 235.74,265.48C242.24,266.26 248.65,264.89 254.87,263.11C253.07,274.81 250.25,286.5 245.21,297.27C243.12,302.01 238.65,305.53 237.89,310.88C245.38,310.57 251.96,306.62 258.7,303.77C266.95,299.22 275.43,294.79 282.48,288.44C286.61,284.57 290.48,280.4 293.9,275.9C299.59,267.61 301.67,257.64 303.79,247.99Z" style="fill:rgb(68,55,66);fill-rule:nonzero;"/>
                                </g>
                                <g transform="matrix(1,0,0,1,0,224)">
                                    <path d="M207.09,255.82C207.18,255.83 207.35,255.85 207.44,255.86L207.09,255.82Z" style="fill:rgb(68,55,66);fill-rule:nonzero;"/>
                                </g>
                            </g>
                            <g id="_-ab414fff" serif:id="#ab414fff" transform="matrix(1,0,0,0.78125,0,0)">
                                <g transform="matrix(1,0,0,1,0,224)">
                                    <path d="M325.31,101.14C326.54,97.6 327.44,93.72 330.13,90.94C331.84,92.75 332.91,95.01 333.81,97.3C336.98,105.15 340.46,112.88 344.26,120.45C351.33,134.11 356.74,149.43 354.8,165.03C354.46,174.71 350.23,183.79 344.79,191.65C340.98,196.77 336.02,200.86 331.36,205.17C335.59,206.61 339.84,208.05 343.9,209.95C347.86,211.69 349.74,215.87 351.8,219.4C354.78,224.41 353.5,230.44 353.69,235.95C353.36,241.83 354.31,247.93 352.37,253.6C347.57,255.02 342.84,256.74 338.01,258.06C332.35,258.47 327.75,262.62 322.03,262.55C317.86,262.76 313.52,261.53 310.45,258.62C307.37,255.69 305.73,251.69 303.79,247.99C301.67,257.64 299.59,267.61 293.9,275.9C290.48,280.4 286.61,284.57 282.48,288.44C275.43,294.79 266.95,299.22 258.7,303.77C251.96,306.62 245.38,310.57 237.89,310.88C238.65,305.53 243.12,302.01 245.21,297.27C250.25,286.5 253.07,274.81 254.87,263.11C248.65,264.89 242.24,266.26 235.74,265.48C225.86,264.03 216.02,261 207.44,255.86C207.35,255.85 207.18,255.83 207.09,255.82C202.15,253.33 196.87,251.58 191.49,250.31C189.42,249.7 186.86,249.35 185.76,247.22C184.67,245.33 182.91,244.05 181.11,242.9C183.29,240.44 186.67,239.93 189.58,238.81C201.15,235.11 212.14,229.36 221.51,221.6C225.43,218.83 229.45,216.17 233.55,213.66C240.85,208.54 249.31,203.48 258.59,204.49C265.3,205.09 272.1,207.33 277.28,211.76C277.33,213.06 277.45,214.36 277.63,215.66C279.19,216.93 281.11,217.64 282.91,218.52C275.99,223.46 269.71,230.51 269.28,239.42C272.5,240.65 276.34,241.24 279.44,239.34C284.11,235.98 285.9,229.71 291.21,227.08C294.31,225.09 298.26,224.85 301.64,226.29C303.57,226.71 306.14,228.55 307.48,226.17C307.63,221.03 305.53,216.09 305.76,210.97C306.99,208.25 309.22,206.1 310.39,203.35C310.76,201.57 310.63,199.73 310.69,197.93C308.33,199.11 306.1,200.56 303.63,201.49C301.59,201.92 299.62,200.87 297.69,200.4C295.45,194.27 298.06,188.01 297.43,181.75C295.4,186.11 295.23,191.04 293.2,195.39C290.43,193.17 288.31,189.62 284.51,189.15C282.81,191.6 280.03,192.36 277.22,192.65C276.6,199.75 280.58,205.95 284.14,211.72C273.37,207.63 263.78,199.92 257.93,189.94C256.5,187.82 255.22,185.58 254.45,183.12C252.79,178.13 250.74,173.15 250.32,167.86C250.57,165.16 250.42,162.46 249.98,159.8C249.06,154.76 250.64,149.4 248.43,144.6C247.46,141.15 247.32,137.53 246.45,134.06C245.13,127.43 242.52,121.15 241.01,114.58C244.46,115.86 247.49,118.09 251.01,119.24C260.6,122.82 268.53,129.48 277.1,134.84C280.92,138.38 284.96,141.67 288.86,145.11C295.24,150.89 299.24,158.65 304.95,165.01C310.51,152.67 318.73,141.53 322.4,128.37C323.47,124.75 323.61,120.94 323.2,117.2C322.92,111.79 324.01,106.37 325.31,101.14Z" style="fill:rgb(171,65,79);fill-rule:nonzero;"/>
                                </g>
                                <g transform="matrix(1,0,0,1,0,224)">
                                    <path d="M366.65,128.52C369.35,124.48 371.69,119.02 377.08,118.16C379.92,121.51 379.49,126.04 380.06,130.11C380.73,137.05 380.26,144.02 379.09,150.88C383.2,149.2 387.51,147.47 392.03,147.68C396.15,148.21 400.46,148.8 403.96,151.26C402.78,154.91 400.23,157.87 397.78,160.74C393.23,165.81 386.83,168.54 381.34,172.39C384.83,178.28 386.93,185.03 386.74,191.92C382.76,191.54 378.75,190.95 374.95,189.7C370.89,187.75 367.09,184.53 366.12,179.93C364.26,174.77 368.01,170.08 368.64,165.12C368.09,162.15 364.89,160.22 364.69,157.09C364.5,152.7 363.59,148.37 363.56,143.98C363.9,138.73 364.77,133.46 366.65,128.52Z" style="fill:rgb(171,65,79);fill-rule:nonzero;"/>
                                </g>
                            </g>
                            <g id="_-d8d3d9ff" serif:id="#d8d3d9ff" transform="matrix(1,0,0,0.78125,0,0)">
                                <g transform="matrix(1,0,0,1,0,224)">
                                    <path d="M430.93,130.67C438.4,129.45 445.31,133.23 451.95,136.05C465.13,142.46 477.33,150.97 487.41,161.65C490.31,164.83 493.69,167.85 495.13,172.04C492.71,170.8 490.5,169.21 488.41,167.49C480.19,160.82 471.46,154.72 462.05,149.84C454.14,145.3 445.7,141.63 436.92,139.15C430.72,137.42 424.21,137.68 417.91,136.6C421,132.66 426.26,131.54 430.93,130.67Z" style="fill:rgb(216,211,217);fill-rule:nonzero;"/>
                                </g>
                                <g transform="matrix(1,0,0,1,0,224)">
                                    <path d="M522.13,206.96C520.44,203.3 517.89,200 517.09,195.98C525.78,205.46 532.21,216.76 537.76,228.3C546.7,245.62 550.54,264.91 554.85,283.76C550.23,283.02 545.4,282.11 541.65,279.1C542.7,272.37 540.98,265.68 539.86,259.08C537.66,249.03 535.33,238.96 531.8,229.27C529.15,221.6 525.59,214.28 522.13,206.96Z" style="fill:rgb(216,211,217);fill-rule:nonzero;"/>
                                </g>
                                <g transform="matrix(1,0,0,1,0,224)">
                                    <path d="M440.1,224.84C441.5,227.92 442.68,231.1 443.62,234.36C446.62,244.76 449.82,255.18 451.01,265.99C454.05,290.31 454.14,315.72 445.96,339.12C444.62,343.19 443.31,347.46 440.27,350.62C440.19,349.9 440.04,348.46 439.97,347.73C440.72,343.13 442.16,338.67 443.17,334.12C450.31,302.08 448.82,268.67 442.35,236.66C441.39,232.76 440.44,228.85 440.1,224.84Z" style="fill:rgb(216,211,217);fill-rule:nonzero;"/>
                                </g>
                                <g transform="matrix(1,0,0,1,0,224)">
                                    <path d="M328.32,285.57C329.28,288.55 330,291.6 330.47,294.69C332.88,310.75 337.83,326.43 345.09,340.96C349.96,350.15 355.17,359.3 362.13,367.1C361.93,372.28 363.41,377.96 360.64,382.69C354.89,377.09 350.77,370.16 346.56,363.39C341.99,355.78 338.5,347.55 335.93,339.05C330.48,321.86 326.4,303.69 328.32,285.57Z" style="fill:rgb(216,211,217);fill-rule:nonzero;"/>
                                </g>
                                <g transform="matrix(1,0,0,1,0,224)">
                                    <path d="M613.85,291.53C617.69,294.91 620.78,299.02 624.48,302.54C634.44,312.08 646.76,319.73 660.37,322.58C664.62,323.7 668.96,322.61 673.25,322.74C676.02,325.69 678.01,329.28 680.59,332.4C682.17,334.62 684.87,337.18 683.2,340.11C676.17,357.28 666.33,373.92 651.56,385.54C650.15,387.06 647.25,388.37 648.12,390.86C650.66,399.46 653.92,407.84 656.57,416.42C659.55,426.25 661.62,436.34 665.06,446.04C672.96,469.06 682.96,491.46 695.89,512.12C705.59,526.46 716.96,539.62 728.78,552.24C742.25,565.77 756.93,578.06 770.1,591.9C780.51,603.2 791.02,614.42 800.97,626.13C809.98,637.16 819.92,647.45 828.39,658.91C823.68,663.71 820.3,669.8 814.71,673.69C809.57,677.45 804.38,681.33 800.64,686.56C796.73,691.95 792.86,697.4 788.31,702.28C785.67,704.9 784.63,708.56 782.56,711.55C779.92,713.92 776.85,715.88 773.61,717.34C771.43,718.23 769.58,716.15 768.09,714.88C762.77,709.2 756.75,704.08 752.45,697.53C751.19,695.48 750.94,693.02 750.41,690.73C753.34,684.97 756.76,679.44 758.84,673.28C763.46,664.7 765.9,655.16 767.57,645.62C768.54,638.96 768.49,631.8 765.45,625.65C760.38,615.01 751.9,606.62 743.7,598.37C739.4,593.31 733.64,589.67 729.74,584.24C727.12,580.57 724.16,577.16 721.61,573.44C716.85,565.48 712.37,557.36 707.7,549.36C702.46,539.6 695.07,531.1 686.75,523.85C684.21,521.36 681.35,519.21 678.06,517.82C676.14,516.78 674.29,515.64 672.42,514.54C671.84,508.68 672.53,502.81 672.21,496.96C671.73,491.65 669.03,486.47 664.9,483.09C661.46,480.69 657.11,482.21 653.56,483.54C648.33,485.39 643.5,488.15 638.47,490.45C636.17,491.43 635.05,488.47 633.94,487.04C629.07,478.61 623.28,470.72 618.93,461.98C616.05,456.76 613.07,451.59 610.55,446.18C610.01,447.2 609.47,448.21 608.98,449.25C610.43,429.19 611.25,409.1 612.68,389.04C613.8,374.38 612.92,359.64 611.22,345.06C610.42,340.5 613.3,336.55 614.33,332.29C618.03,318.91 615.34,305.02 613.85,291.53Z" style="fill:rgb(216,211,217);fill-rule:nonzero;"/>
                                </g>
                                <g transform="matrix(1,0,0,1,0,224)">
                                    <path d="M256.39,401.89C257.51,400.81 258.75,399.88 259.98,398.93C260.94,400.86 262.02,402.77 262.66,404.84C261.77,409.14 259.78,413.09 258.15,417.14C253.85,426.98 249.69,436.94 244.28,446.24C234.5,463.06 221.94,478.51 206.37,490.29C201.94,493.59 197.15,496.35 192.57,499.43C185.23,503.76 177.02,506.38 168.85,508.68C160.86,510.77 152.42,512.81 144.18,510.84C143.81,508.38 144.31,505.91 145.87,503.95C155.22,490.56 167.05,479.18 178.63,467.75C187.42,459.81 196.27,451.94 205.14,444.1C210.83,438.8 216.82,433.8 221.9,427.89C227.35,421.88 232.01,415.22 236.63,408.56C238.47,406.24 237.87,403.09 238.13,400.36L238.71,400.42C238.82,404.59 238.27,408.79 238.96,412.95C240.24,418.37 235.24,423.3 237.07,428.69C238.13,431.61 242.11,430.5 243.15,428.12C248.04,419.64 251.86,410.57 256.39,401.89Z" style="fill:rgb(216,211,217);fill-rule:nonzero;"/>
                                </g>
                                <g transform="matrix(1,0,0,1,0,224)">
                                    <path d="M327.16,420.88C327.22,419.97 327.65,419.3 328.44,418.86C330.05,432.03 328.78,445.68 333.48,458.34C336.55,467.5 342.89,475.84 351.59,480.28C355.37,482.52 359.85,483.62 363.15,486.63C357.82,489.08 351.6,489.45 345.96,487.91C338.03,485.11 330.73,479.86 326.55,472.43C323.72,467.46 322.64,461.68 322.65,456.01C322.78,444.16 325.19,432.52 327.16,420.88Z" style="fill:rgb(216,211,217);fill-rule:nonzero;"/>
                                </g>
                                <g transform="matrix(1,0,0,1,0,224)">
                                    <path d="M316.63,429.99C317.22,443.18 314.29,456.76 318.41,469.63C320.46,476.43 325.27,481.9 330.39,486.64C336.19,492.11 344.64,494.06 349.54,500.62C337.91,500.29 326.62,496.85 314.98,496.62C312.25,496.47 309.73,497.67 307.33,498.81C305.14,499.84 302.94,500.88 300.75,501.91C304.45,487.19 308.74,472.61 311.61,457.69C313.33,448.47 315.3,439.28 316.63,429.99Z" style="fill:rgb(216,211,217);fill-rule:nonzero;"/>
                                </g>
                                <g transform="matrix(1,0,0,1,0,224)">
                                    <path d="M525.94,452C532.8,445.39 539.29,438.4 546.01,431.65C543.47,443.37 542.79,455.35 541.37,467.23C541.16,474.99 540.89,482.87 542.19,490.56C541.49,491.3 541.05,492.74 539.82,492.61C535.02,493.05 528.86,490.78 525.48,495.42C520.8,503.94 522.12,514.53 517.25,523C512.6,522.45 511.18,517.49 510.11,513.68C508.54,507.55 508.44,500.26 503.53,495.66C496.28,491.32 487.56,494.15 479.73,494.65C474.76,494.82 473.5,488.18 468.82,487.73C466.4,487.32 463.38,487.03 462.6,484.22C460.75,478.12 460.88,471.6 459.29,465.42C471.03,468.32 483.2,469.05 494.86,472.36C499.26,473.82 503.66,471.76 506.94,468.86C513.3,463.27 519.97,458.01 525.94,452Z" style="fill:rgb(216,211,217);fill-rule:nonzero;"/>
                                </g>
                                <g transform="matrix(1,0,0,1,0,224)">
                                    <path d="M900.12,507.24C902,505.29 903.53,502.82 906.1,501.71C903.65,510.28 899.43,518.22 896.73,526.73C895.45,531.1 892.08,535.87 894.52,540.42C895.55,543.02 898.67,544.27 901.29,543.42C903.65,542.59 905.8,541.25 908.01,540.08C906.6,544.75 904.22,549.84 906.33,554.68C907.82,556.82 911.01,557.38 913.33,556.29C915.81,555.14 917.91,553.35 920.19,551.87C920.25,555.54 917.68,559.55 920.15,562.92C921.89,565.68 925.75,566.05 928.42,564.44C934.9,560.41 939.43,553.96 945.64,549.62C949.69,549.07 953.76,550.31 957.72,551.1C955.71,556.76 954.21,563.27 949.05,566.98C943.11,571.29 935.42,570.51 928.7,572.55C917.15,575.86 907.62,584.16 900.52,593.62C899.72,594.74 898.64,595.57 897.35,596.06C898.08,588.41 899.22,580.69 898.01,573.03C896.52,560.23 890.42,548.65 884.73,537.31C883.7,532.83 884.88,528.01 886.87,523.94C890.17,517.56 895.52,512.64 900.12,507.24Z" style="fill:rgb(216,211,217);fill-rule:nonzero;"/>
                                </g>
                                <g transform="matrix(1,0,0,1,0,224)">
                                    <path d="M284.04,550.05C286.28,544.47 288.23,538.75 291.18,533.49C291.76,537.24 292.12,541.06 293.34,544.67C294.08,546.85 295.9,548.61 296.51,550.8C291.8,558.06 287.06,565.35 283.01,573.03C274.05,588.28 266.65,604.67 254.89,618.07C255.79,614.77 256.88,611.51 258.44,608.46C267.83,589.37 276.33,569.86 284.04,550.05Z" style="fill:rgb(216,211,217);fill-rule:nonzero;"/>
                                </g>
                                <g transform="matrix(1,0,0,1,0,224)">
                                    <path d="M222.21,677.88C226.29,686.44 230.79,694.88 236.64,702.38C241.26,708.74 246.7,714.42 251.98,720.22C241.4,736.91 228.87,752.26 217.27,768.24C209.87,778.95 201.63,789.07 194.54,800L146.64,800C156.82,784.16 168.53,769.33 178.11,753.09C193.98,728.72 207.96,703.21 222.21,677.88Z" style="fill:rgb(216,211,217);fill-rule:nonzero;"/>
                                </g>
                                <g transform="matrix(1,0,0,1,0,224)">
                                    <path d="M362.61,760.51C367.13,758.84 371.73,757.28 375.85,754.71C379.39,763.56 380.8,773.27 385.82,781.5C386.35,781.42 387.42,781.27 387.95,781.2C384.41,782.11 380.79,782.83 377.44,784.37C381.23,785.16 385.12,785.63 389,785.36C392.3,790.66 397.27,794.66 400.55,800L351.22,800C353.02,789.32 354.2,778.47 357.25,768.05C358.23,765.13 359.43,761.65 362.61,760.51Z" style="fill:rgb(216,211,217);fill-rule:nonzero;"/>
                                </g>
                            </g>
                            <g id="_-faecdeff" serif:id="#faecdeff" transform="matrix(1,0,0,0.78125,0,0)">
                                <g transform="matrix(1,0,0,1,0,224)">
                                    <path d="M488.32,240.14C497.16,247.5 501.88,258.33 508.19,267.7C511.23,271.84 512.02,277.03 514.31,281.55C517.74,288.65 518.83,296.59 522.04,303.78C524.55,294.66 522.89,285.2 520.94,276.16C519.69,271.41 517.02,267 517.18,261.94C522.66,262.93 525.95,267.7 530.19,270.78C534.01,273.55 537.85,276.29 541.65,279.1C545.4,282.11 550.23,283.02 554.85,283.76C555.79,288.46 556.19,293.24 556.61,298.01C557.32,306.7 555.86,315.35 555.69,324.03C555.06,334.41 554.33,344.84 551.87,354.98C550.65,361.85 546.68,367.92 546.13,374.96C550.18,372.12 553.29,368.23 556.98,364.97C556.5,370.15 552.94,374.15 550.84,378.72C556.34,380.47 560.15,374.62 565.39,374.17C566.05,377.09 566.99,380.15 566.07,383.14C564.34,389.52 563.82,396.13 563.54,402.71C558.76,412.96 553.1,422.82 546.01,431.65C539.29,438.4 532.8,445.39 525.94,452C519.97,458.01 513.3,463.27 506.94,468.86C503.66,471.76 499.26,473.82 494.86,472.36C483.2,469.05 471.03,468.32 459.29,465.42C443.62,461.9 427.86,458.16 412.98,451.97C405.55,449.04 399.31,443.9 393.98,438.05C393.96,438.55 393.91,439.54 393.88,440.04C392.86,435.39 388.86,432.26 387.38,427.86C386.51,425.53 388.6,424.07 390.05,422.69C386.01,416.2 378.28,413.43 374.26,406.92C374.56,406.18 374.87,405.45 375.19,404.72C379.93,404.64 384.8,404.65 389.28,402.86C388.28,401.84 387.35,400.62 385.88,400.31C380.21,398.89 375.98,394.68 370.98,391.93C366.82,389.71 363.35,386.53 360.64,382.69C363.41,377.96 361.93,372.28 362.13,367.1C362.39,366.75 362.9,366.05 363.15,365.7C364.65,367.01 366.36,368.01 368.28,368.57C368.53,365 367.97,361.46 367.11,358C365.87,353.31 366.85,348.46 367.7,343.8C370.8,345.5 372.2,348.9 374.48,351.43C376.13,353.33 378.21,354.76 380.24,356.21C380.07,352.06 379.19,348 378.27,343.96C375.67,331.83 376.23,319.37 376.26,307.05C376.3,300.76 377.28,294.53 377.45,288.26C378.43,288.28 379.42,288.31 380.41,288.35C382.09,293.5 382.46,299.14 385.17,303.91C389.67,310.21 392.82,317.38 397.63,323.48C401.05,327.7 403.76,332.64 408.2,335.93C410.18,337.46 412.24,338.88 414.24,340.38C414.51,339.82 415.05,338.71 415.32,338.15C413.13,335.85 411.03,333.41 409.66,330.53C407.1,325.22 404.21,319.77 404.32,313.71C407.04,316.04 408.57,319.34 410.76,322.11C415.73,328.46 420.65,334.98 427.05,339.98C430.95,343.14 434.81,346.87 439.97,347.73C440.04,348.46 440.19,349.9 440.27,350.62C440.19,353.56 441.81,355.75 444.02,357.49C444.62,359.84 444.84,362.29 445.6,364.62C450.84,360.61 455.21,355.56 460.49,351.61C464.88,350.62 469.5,353.28 473.84,351.38C471.4,348.63 466.31,346.14 467.8,341.73C470.9,334.77 474.87,328.12 476.82,320.69C478.21,315.06 479.81,309.48 480.93,303.78C484.41,309.21 480.29,316.68 484.74,321.48C487.73,318.42 487.27,313.94 488.31,310.1C491.07,299.99 491.51,289.43 491.4,279.01C491.6,270 490.76,260.98 488.96,252.15C488.16,248.2 488.22,244.15 488.32,240.14Z" style="fill:rgb(250,236,222);fill-rule:nonzero;"/>
                                </g>
                                <g transform="matrix(1,0,0,1,0,224)">
                                    <path d="M893.46,490.5C897.13,487.76 900.92,483.59 905.93,484.25C910.13,485.28 909.74,490.42 910.44,493.76C919.13,493.4 927.32,496.87 934.39,501.65C938.69,504.36 936.8,511.21 941.8,513.25C948.55,516.75 947.82,525.98 953.77,530.24C958.27,533.8 964.01,537.11 965.31,543.19C965.89,549.92 963.28,556.4 960.34,562.31C954.3,574.8 947.74,587.16 939.12,598.09C935.34,603.33 931.9,608.82 927.86,613.88C923.3,620.4 917.12,626.02 914.7,633.82C911.21,644.08 907.03,654.09 903.82,664.45C895.04,684.91 888.16,706.14 879.96,726.84C873.8,742.63 867.94,758.56 860.54,773.83C858.43,771.02 855.41,768.59 854.68,765C855.74,758.44 860.18,752.76 860.31,745.99C859.86,740.05 857.61,733.98 853.05,729.97C851.5,728.23 849.03,726.67 849.22,724.05C849.02,717.97 855.82,714.35 855.54,708.25C854.95,702.8 851.76,698.14 849.86,693.11C845.39,682.09 842.13,669.62 845.74,657.89C847.99,650.76 850.9,643.85 853.59,636.88C854.86,633.89 855.88,630.81 856.78,627.7C858.14,622.84 860.53,618.17 860.46,613.01C860.51,604.11 860.65,595.1 858.66,586.36C856.64,578.4 857.15,570.13 857.24,562.01C857.39,552.59 861.28,543.88 864.04,535.05C865.42,530.65 867.35,526.47 869.35,522.33C871.85,517.14 873.26,511.44 876.48,506.62C880.68,499.86 887.75,495.81 893.46,490.5M900.12,507.24C895.52,512.64 890.17,517.56 886.87,523.94C884.88,528.01 883.7,532.83 884.73,537.31C890.42,548.65 896.52,560.23 898.01,573.03C899.22,580.69 898.08,588.41 897.35,596.06C898.64,595.57 899.72,594.74 900.52,593.62C907.62,584.16 917.15,575.86 928.7,572.55C935.42,570.51 943.11,571.29 949.05,566.98C954.21,563.27 955.71,556.76 957.72,551.1C953.76,550.31 949.69,549.07 945.64,549.62C939.43,553.96 934.9,560.41 928.42,564.44C925.75,566.05 921.89,565.68 920.15,562.92C917.68,559.55 920.25,555.54 920.19,551.87C917.91,553.35 915.81,555.14 913.33,556.29C911.01,557.38 907.82,556.82 906.33,554.68C904.22,549.84 906.6,544.75 908.01,540.08C905.8,541.25 903.65,542.59 901.29,543.42C898.67,544.27 895.55,543.02 894.52,540.42C892.08,535.87 895.45,531.1 896.73,526.73C899.43,518.22 903.65,510.28 906.1,501.71C903.53,502.82 902,505.29 900.12,507.24Z" style="fill:rgb(250,236,222);fill-rule:nonzero;"/>
                                </g>
                                <g transform="matrix(1,0,0,1,0,224)">
                                    <path d="M823.77,596.48C827.85,597.43 831.17,600.1 834.66,602.27C835.89,602.91 836.51,604.13 836.84,605.44C834.58,603.94 832.33,602.45 829.99,601.1C829.52,601.42 828.59,602.05 828.12,602.37C825.19,603.26 824.41,598.55 823.77,596.48Z" style="fill:rgb(250,236,222);fill-rule:nonzero;"/>
                                </g>
                            </g>
                            <g id="_-80a2beff" serif:id="#80a2beff" transform="matrix(1,0,0,0.78125,0,0)">
                                <g transform="matrix(1,0,0,1,0,224)">
                                    <path d="M541.37,467.23C548.6,469.88 556.67,468.59 563.7,471.9C563.74,472.36 563.82,473.29 563.87,473.76C559.31,476.96 554.73,480.13 549.88,482.85C546.63,484.64 544.05,487.39 542.19,490.56C540.89,482.87 541.16,474.99 541.37,467.23Z" style="fill:rgb(128,162,190);fill-rule:nonzero;"/>
                                </g>
                                <g transform="matrix(1,0,0,1,0,224)">
                                    <path d="M300.75,501.91C302.94,500.88 305.14,499.84 307.33,498.81C311.12,501.19 314.59,504.02 318.05,506.85C324.88,512.16 329.53,519.61 334.75,526.38C339.66,532.65 342.13,540.39 344.02,548.02C345.46,553.4 346.11,559.13 349.19,563.92C351.78,562.95 354.3,561.74 357.03,561.22C361.89,560.47 366.61,564.37 367.32,569.13C368.2,575.72 367.45,582.4 368.26,589C370.08,602.03 376.08,614.34 385.15,623.86C393.93,633.17 399.92,645.28 411.05,652.2C406.44,663.18 399.34,672.9 392.03,682.23C402.17,676.71 411.07,668.79 417.07,658.87C420.74,663.13 424.23,667.58 428.33,671.46C428.29,678.65 427.49,685.81 426.61,692.94C426.03,699.54 425.49,706.17 424.19,712.68C417.68,702.64 413.11,691.45 405.82,681.89C404.9,683.18 403.64,684.37 403.34,686.01C401.97,693.08 402.31,700.51 404.5,707.39C407.18,716.44 410.75,725.63 417.48,732.49C418.42,733.4 419.13,734.52 419.29,735.86C416.3,745.7 412.86,755.52 407.31,764.25C402.66,771.53 396.52,778.64 387.95,781.2C387.42,781.27 386.35,781.42 385.82,781.5C380.8,773.27 379.39,763.56 375.85,754.71C371.73,757.28 367.13,758.84 362.61,760.51C359.43,761.65 358.23,765.13 357.25,768.05C354.2,778.47 353.02,789.32 351.22,800L319.96,800C322.05,788.93 323.92,777.78 324.96,766.57C320.1,770.14 315.68,774.26 310.98,778.03C308.9,779.6 306.62,781.26 303.92,781.39C301.33,781.08 300.44,778.27 299.86,776.14C297.93,768.43 301.3,760.68 300.12,752.93C296.07,756.96 292.25,761.23 287.82,764.87C279.22,772.13 269.56,777.99 260.02,783.93C255.66,786.65 251.13,790.39 245.62,789.44C244.95,785.24 246.67,781.27 248.65,777.68C252.08,771.51 255.12,765.09 259.17,759.28C262.12,754.6 265.81,750.41 268.33,745.46C262.54,746.18 257.41,749.28 253.33,753.33C242.47,763.72 234.68,776.71 225.62,788.59C222.83,792.22 220.57,796.21 218.01,800L194.54,800C201.63,789.07 209.87,778.95 217.27,768.24C228.87,752.26 241.4,736.91 251.98,720.22C246.7,714.42 241.26,708.74 236.64,702.38C230.79,694.88 226.29,686.44 222.21,677.88C219.08,671.21 218.49,662.89 222.62,656.5C228.4,647.54 235.49,639.5 242.98,631.93C247.29,627.62 251.22,622.93 254.89,618.07C266.65,604.67 274.05,588.28 283.01,573.03C287.06,565.35 291.8,558.06 296.51,550.8C295.9,548.61 294.08,546.85 293.34,544.67C292.12,541.06 291.76,537.24 291.18,533.49C291.16,522.2 296.12,511.92 300.75,501.91M312.39,567.5C308.91,569.56 307.81,573.69 306.17,577.11C300.31,589.64 292.25,601.74 280.42,609.33C268.21,617.59 256.56,627.92 250.95,641.91C249.27,646.81 246.9,651.77 247.35,657.09C247.91,663.28 250.71,668.98 253.81,674.28C258.24,681.62 263.44,688.47 268.87,695.1C274.53,702.71 280.35,710.21 286.35,717.55C286.69,716.08 286.12,714.64 285.72,713.27C282.87,704.79 281.61,695.89 280.44,687.05C280.23,679.82 279.22,671.79 283.4,665.41C287.15,660.27 295.53,660.88 299.36,665.6C302.61,669.82 304.17,675.04 305.7,680.06C308.73,692.8 311.65,705.57 314.61,718.32C315.38,721.59 315.48,725.06 316.99,728.12C322.12,725.97 326.92,723.08 332.23,721.37C338.69,719.3 345.28,717.42 352.02,716.58C357.04,715.92 362.66,716.98 366.1,720.97C367.99,724.28 365.88,728.12 363.44,730.51C357.31,737.08 348.34,739.3 340.38,742.74C348.38,744.55 356.95,743.35 364.01,739.14C369.25,735.85 374.58,732.37 378.36,727.37C381.65,723.28 382.63,717.99 383.96,713.05C385.96,705.85 386.54,698.37 387.43,690.98C388.77,680.37 388.11,669.63 387.18,659.02C387.01,654.49 383.8,651.07 381.31,647.59C375.57,639.6 367.76,632.72 364.78,623.07C362.32,615.64 364.55,606.89 359.84,600.19C354.28,593.13 346.93,587.68 341.57,580.44C337.56,575.42 335.32,569.33 332.19,563.79C331.43,562.67 330.76,560.88 329.08,561.36C323.18,562.19 317.49,564.44 312.39,567.5Z" style="fill:rgb(128,162,190);fill-rule:nonzero;"/>
                                </g>
                                <g transform="matrix(1,0,0,1,0,224)">
                                    <path d="M438.2,504.9C445.96,510.14 453.06,516.48 461.63,520.43C475.85,527.3 489.81,535.07 505.1,539.38C501.62,540.96 498.43,543.26 496.22,546.42C486.62,541.87 476.5,538.36 467.56,532.51C458.18,527.32 449.53,520.99 440.73,514.88C440.68,514.38 440.59,513.38 440.54,512.88C440.34,512.86 439.96,512.83 439.77,512.81C438.02,511.79 436.29,510.77 434.54,509.77C435.75,508.14 436.97,506.52 438.2,504.9Z" style="fill:rgb(128,162,190);fill-rule:nonzero;"/>
                                </g>
                                <g transform="matrix(1,0,0,1,0,224)">
                                    <path d="M675.99,517.69C676.5,517.72 677.54,517.79 678.06,517.82C681.35,519.21 684.21,521.36 686.75,523.85C686.69,531.56 687.02,539.29 686.47,547C686.32,550.38 685.64,554.15 687.86,557.06C694.63,568.3 691.6,581.87 692.84,594.24C694.73,605.8 698.46,617.16 698.23,629C698.02,638.93 697.44,648.96 695.12,658.66C691.22,655.68 687.42,652.56 683.64,649.42C682.95,644.04 682.96,638.35 685.45,633.39C687.83,628.55 691.05,623.62 690.13,617.95C690.06,613.09 685.23,610.9 682.37,607.78C682.76,601.77 688.85,598.09 689.32,592.09C690.29,583.46 690.52,574.46 687.94,566.09C686.73,561.92 683.41,558.83 679.34,557.53C681.51,554.53 683.17,551.13 683.49,547.4C685.05,536.9 680.78,526.77 675.99,517.69Z" style="fill:rgb(128,162,190);fill-rule:nonzero;"/>
                                </g>
                                <g transform="matrix(1,0,0,1,0,224)">
                                    <path d="M744.66,650.66C746.73,645.33 749.98,639.57 755.94,638.02C758.55,636.87 760.83,639.36 761.34,641.73C763.86,652.31 760.08,662.82 758.84,673.28C756.76,679.44 753.34,684.97 750.41,690.73C750.21,692.75 750.14,694.78 750.05,696.82C744.54,699.96 739.43,703.71 734.14,707.19C729.72,710.14 724.39,711.74 720.61,715.59C718.43,717.39 719.06,720.45 718.87,722.94C718.62,746.76 714.67,770.73 718.32,794.45C722.26,791.81 723.71,787.04 726.14,783.2C731.51,773.17 737.34,763.33 744.66,754.57C751.5,746.14 758.2,737.54 766.07,730.03C768.36,728 770.75,725.44 774.06,725.46C768.82,736.15 766.09,747.8 763.38,759.32C760.8,772.88 757.57,786.32 755.68,800L626.42,800C629.31,790.91 632.99,782.1 635.79,772.99C635.8,773.52 635.81,774.59 635.81,775.12C638.28,775.81 640.79,776.3 643.31,776.83C644.57,774.31 645.58,771.66 646.18,768.91C647.78,761.9 651.62,755.39 651.37,748.02C651.16,736.52 646.6,725.75 642.89,715.05C640.35,707.81 641.51,699.96 639.4,692.63C638.1,686.66 634.76,681.35 633.85,675.29C639.6,680.51 643.7,687.87 651.1,691.04C653.71,692.29 656.51,690.03 657.47,687.66C659.55,682.22 659.42,676.27 659.39,670.54C663.79,678.21 669.47,685.09 675.23,691.77C683.54,701.78 695.15,708.53 702.91,719.04C708.72,727.54 709.68,738.45 707.16,748.26C705.96,756.05 702.6,763.17 699.04,770.11C701.92,767.65 704.55,764.9 706.83,761.87C714.5,752.07 716.82,739.18 716.87,727.02C717.05,721.32 715.33,715.7 715.81,710.02C717.14,704.48 719.23,698.89 718.39,693.09C717.66,688.77 717.16,684.18 714.63,680.47C718.38,670.48 725.25,661.69 727.22,651.04C727.69,648.98 728.01,646.84 729.04,644.98C729.93,643.66 731.91,642.46 733.41,643.59C736.48,645.6 738.04,649.38 737.91,652.98C737.91,662.17 736.02,671.26 736.23,680.46C737.4,679.23 738.79,678.11 739.5,676.52C742.96,668.27 740.9,658.82 744.66,650.66M650.76,703.98C651.47,716.53 656.35,728.44 657.11,741.01C657.84,747.25 656.51,753.43 655.45,759.55C662.8,758.42 671.14,756.13 675.27,749.38C679.07,741.77 676.96,732.73 673.78,725.28C670.41,717.48 663.86,711.88 657.81,706.21C655.98,704.22 653.26,704.08 650.76,703.98Z" style="fill:rgb(128,162,190);fill-rule:nonzero;"/>
                                </g>
                                <g transform="matrix(1,0,0,1,0,224)">
                                    <path d="M879.96,726.84C888.16,706.14 895.04,684.91 903.82,664.45C906.72,668.12 909.62,671.8 912.27,675.67C915.74,680.73 917.86,686.58 921.32,691.65C922.74,693.92 924.49,696.18 924.84,698.93C925.24,703.01 923.78,706.99 924.04,711.07C924.93,715.65 930.23,718.93 928.81,724C928.63,726.71 927.14,730.09 929.83,732.04C934.33,736.24 938.48,741.56 938.71,747.98C939.22,753.75 935.86,758.75 934.4,764.11C933.53,767.33 935.6,770.25 936.81,773.08C940.87,781.32 942.63,791.14 939.56,800L872.01,800C868.31,791.23 865.78,781.86 860.54,773.83C867.94,758.56 873.8,742.63 879.96,726.84Z" style="fill:rgb(128,162,190);fill-rule:nonzero;"/>
                                </g>
                                <g transform="matrix(1,0,0,1,0,224)">
                                    <path d="M484.75,678.71C485.04,676.51 486.31,674.66 487.41,672.8C493.57,688.14 495.86,704.68 497.79,720.99C499.74,732.67 501.21,744.47 504.03,755.99C506.33,764.22 508.09,772.58 510.43,780.8C520.06,780.18 529,776.19 538.44,774.53C546.4,783.37 555.27,791.34 563.42,800L437.92,800C435.83,786.9 439.83,773.79 444.81,761.8C448.76,752.16 451.23,742.03 453.49,731.89C456.55,716.79 459.15,701.5 458.73,686.03C463.61,693.58 468.68,701.92 477.37,705.54C479.32,706.47 482.68,706.63 483.1,703.87C485.11,695.64 483.65,687.05 484.75,678.71M471.97,717.92C468.9,726.71 465.49,735.37 462.13,744.06C460.37,748.58 458.12,753.05 457.68,757.95C457.38,761.31 460.36,763.48 462.76,765.23C469.07,769.49 475.9,773.22 483.3,775.18C481.56,771.2 477.45,769.3 474.37,766.56C474.41,766.34 474.48,765.91 474.52,765.69C481.99,764.46 489.61,765.1 497.13,764.26C497.53,762.54 498.13,760.83 498.12,759.07C497.46,749.88 494.75,741.04 492.67,732.12C491.69,728.05 491.2,723.88 490.11,719.85C483.98,720.26 477.62,720.91 471.97,717.92Z" style="fill:rgb(128,162,190);fill-rule:nonzero;"/>
                                </g>
                                <g transform="matrix(1,0,0,1,0,224)">
                                    <path d="M408.36,776.42C413.76,770.73 418.13,764.16 422.04,757.4C420.04,771.49 418.6,785.77 420.05,800L400.55,800C397.27,794.66 392.3,790.66 389,785.36C396.22,784.63 403.05,781.28 408.36,776.42Z" style="fill:rgb(128,162,190);fill-rule:nonzero;"/>
                                </g>
                            </g>
                            <g transform="matrix(1,0,0,0.78125,0,175)">
                                <g id="_-26587cff" serif:id="#26587cff">
                                    <path d="M511.63,536.62C522.5,534.41 534.28,533.79 544.62,538.48C546.71,539.56 549.46,540.09 550.83,542.09C553.6,554.58 549.28,567.38 550.68,579.89C561.94,600.71 573.97,621.13 584.95,642.12C593.23,657.29 601.56,672.46 608.89,688.13C619.17,708.27 628.59,728.85 637.24,749.74C638.53,753.02 640.51,756.32 640.29,759.95C639.15,764.41 637.05,768.56 635.79,772.99C632.99,782.1 629.31,790.91 626.42,800L563.42,800C555.27,791.34 546.4,783.37 538.44,774.53C535.19,771.11 531.69,767.91 528.6,764.35C527.1,762.94 528.03,760.77 528.09,759.03C529.73,749.41 529.61,739.63 530.2,729.92C530.49,723.91 529.86,717.92 529.81,711.93C529.84,698.54 528.31,685.22 527.58,671.86C525.06,648.21 522.45,624.56 519.19,601C518.42,595.87 518.83,590.54 517.4,585.54C514.46,581.21 510.77,577.42 507.94,572.99C504.28,567.2 499.44,562.28 495.77,556.51C493.58,553.43 494.28,549.42 496.22,546.42C498.43,543.26 501.62,540.96 505.1,539.38C507.23,538.36 509.36,537.31 511.63,536.62Z" style="fill:rgb(38,88,124);fill-rule:nonzero;"/>
                                </g>
                            </g>
                        </g>
                    </g>
                </g>
            </g>
        </g>
    </g>
</svg>
